<svg xmlns="http://www.w3.org/2000/svg" xmlns:xlink="http://www.w3.org/1999/xlink" width="1920" zoomAndPan="magnify" viewBox="0 0 1440 809.999993" height="1080" preserveAspectRatio="xMidYMid meet" version="1.0"><defs><filter x="0%" y="0%" width="100%" height="100%" id="f4e2e5a436"><feColorMatrix values="0 0 0 0 1 0 0 0 0 1 0 0 0 0 1 0 0 0 1 0" color-interpolation-filters="sRGB"/></filter><mask id="8c845f1fb4"><g filter="url(#f4e2e5a436)"><rect x="-144" width="1728" fill="#000000" y="-80.999999" height="971.999992" fill-opacity="0.4"/></g></mask><clipPath id="fb0e5c5791"><path d="M 0.957031 0 L 831.207031 0 L 831.207031 639.761719 L 0.957031 639.761719 Z M 0.957031 0 " clip-rule="nonzero"/></clipPath><clipPath id="678fcd1e32"><rect x="0" width="832" y="0" height="640"/></clipPath></defs><rect x="-144" width="1728" fill="#ffffff" y="-80.999999" height="971.999992" fill-opacity="1"/><rect x="-144" width="1728" fill="#73e491" y="-80.999999" height="971.999992" fill-opacity="1"/><g mask="url(#8c845f1fb4)"><g transform="matrix(1, 0, 0, 1, 595, 0.000000000000039746)"><g clip-path="url(#678fcd1e32)"><g clip-path="url(#fb0e5c5791)"><path fill="#f7fdf2" d="M 416.082031 -190.488281 C 186.816406 -190.488281 0.957031 -4.628906 0.957031 224.636719 C 0.957031 453.902344 186.816406 639.761719 416.082031 639.761719 C 645.34375 639.761719 831.207031 453.902344 831.207031 224.636719 C 831.207031 -4.628906 645.34375 -190.488281 416.082031 -190.488281 Z M 416.082031 501.386719 C 263.246094 501.386719 139.332031 377.472656 139.332031 224.636719 C 139.332031 71.800781 263.246094 -52.113281 416.082031 -52.113281 C 568.917969 -52.113281 692.832031 71.800781 692.832031 224.636719 C 692.832031 377.472656 568.917969 501.386719 416.082031 501.386719 Z M 416.082031 501.386719 " fill-opacity="1" fill-rule="nonzero"/></g></g></g></g></svg>