<svg xmlns="http://www.w3.org/2000/svg" xmlns:xlink="http://www.w3.org/1999/xlink" width="500" zoomAndPan="magnify" viewBox="0 0 375 374.999991" height="500" preserveAspectRatio="xMidYMid meet" version="1.0"><defs><g/><clipPath id="ac3d5e4171"><path d="M 74.410156 94 L 306.160156 94 L 306.160156 375 L 74.410156 375 Z M 74.410156 94 " clip-rule="nonzero"/></clipPath><clipPath id="e16cebc6e0"><path d="M 53.957031 136.378906 L 326.679688 136.378906 L 326.679688 266.300781 L 53.957031 266.300781 Z M 53.957031 136.378906 " clip-rule="nonzero"/></clipPath></defs><path fill="#90bb3f" d="M 149.203125 79.460938 C 149.203125 79.460938 151.457031 53.992188 154.960938 48.421875 C 158.464844 42.851562 165.484375 26.617188 172.304688 21.714844 C 175.511719 19.375 204.347656 6.601562 214.308594 4.5625 C 214.308594 4.5625 243.558594 0.113281 243.625 0.949219 C 243.691406 1.78125 237.609375 26.128906 237.609375 26.128906 L 208.488281 53.226562 L 178.886719 69.460938 Z M 149.203125 79.460938 " fill-opacity="1" fill-rule="nonzero"/><path fill="#6a903d" d="M 156.050781 69.84375 C 156.050781 69.84375 178.765625 40.28125 181.414062 39.265625 C 184.058594 38.25 202.214844 26.21875 202.214844 26.21875 L 226.863281 15.769531 L 196.929688 33.136719 L 175.699219 49.121094 Z M 156.050781 69.84375 " fill-opacity="1" fill-rule="nonzero"/><path fill="#6a903d" d="M 171.414062 47.519531 L 172.460938 40.738281 L 174.363281 32.390625 L 169.535156 45.113281 L 169.460938 53.875 Z M 171.414062 47.519531 " fill-opacity="1" fill-rule="nonzero"/><path fill="#6a903d" d="M 191.140625 35.273438 L 195.238281 20.242188 L 198.859375 13.769531 L 196.613281 24.84375 Z M 191.140625 35.273438 " fill-opacity="1" fill-rule="nonzero"/><path fill="#6a903d" d="M 175.285156 49.039062 L 190.191406 49.714844 L 202.820312 46.820312 L 187.652344 47.113281 L 180.992188 47.730469 Z M 175.285156 49.039062 " fill-opacity="1" fill-rule="nonzero"/><path fill="#6a903d" d="M 198.460938 31.40625 L 217.636719 30.828125 L 229.335938 27.675781 L 212.789062 28.476562 Z M 198.460938 31.40625 " fill-opacity="1" fill-rule="nonzero"/><path fill="#90bb3f" d="M 118.804688 43.664062 L 129.230469 43.664062 C 129.230469 43.664062 133.957031 51.46875 136.117188 55.347656 C 137.507812 57.84375 145.082031 79.339844 145.082031 79.339844 L 151.042969 74.265625 L 156.351562 75.167969 L 148.496094 87.761719 L 153.847656 109.167969 L 148.007812 111.671875 L 139.875 87.054688 L 132.363281 63.890625 L 124.847656 48.453125 Z M 118.804688 43.664062 " fill-opacity="1" fill-rule="nonzero"/><g clip-path="url(#ac3d5e4171)"><path fill="#f0c642" d="M 298.402344 190.539062 C 297.515625 187.648438 263.679688 141.039062 261.476562 139.296875 C 259.273438 137.550781 217.652344 112.828125 213.5625 111.746094 C 209.472656 110.664062 176.265625 107.859375 176.265625 107.859375 C 176.265625 107.859375 170.664062 101.882812 170.25 101.445312 C 169.835938 101.007812 161.667969 95.632812 160.238281 95.152344 C 158.808594 94.671875 147.925781 94.738281 145.453125 95.152344 C 144.25 95.347656 135.851562 102.566406 135.515625 103.128906 C 135.175781 103.695312 131.539062 111.492188 131.457031 112.617188 C 131.378906 113.625 129.109375 121.492188 129.109375 121.492188 C 129.109375 121.492188 108.8125 137.207031 105.84375 140.175781 C 102.875 143.144531 76.875 184.070312 74.785156 206.070312 C 74.417969 210.019531 77.792969 266.628906 78.746094 269.75 C 79.699219 272.871094 100.34375 312.367188 102.160156 315.027344 C 108.550781 324.464844 148.765625 350.367188 152.910156 351.820312 C 172.996094 358.78125 201.996094 363.421875 202.964844 364.359375 C 203.933594 365.300781 209.460938 369.34375 209.460938 369.34375 C 209.460938 369.34375 216.773438 373.140625 218.480469 373.414062 C 220.1875 373.683594 229.152344 374.839844 231.515625 374.667969 C 233.875 374.496094 241.226562 369.503906 242.308594 368.617188 C 243.390625 367.730469 247.863281 358.9375 247.863281 358.9375 C 247.863281 358.9375 249.203125 352.023438 249.5625 351.140625 C 250.148438 349.714844 270.183594 334.261719 271.195312 333.179688 C 272.210938 332.097656 294.5 302.019531 297.507812 292.90625 C 300.511719 283.796875 306.179688 242.28125 306.179688 230.5 C 306.144531 227.035156 299.289062 193.425781 298.402344 190.539062 Z M 298.402344 190.539062 " fill-opacity="1" fill-rule="nonzero"/></g><path fill="#e6a424" d="M 279.464844 218.101562 L 282.472656 241.058594 L 281.71875 264.050781 L 275.453125 290.621094 L 265.160156 309.15625 L 251.75 326.816406 C 251.75 326.816406 268.753906 312.636719 271.113281 310.207031 C 273.472656 307.78125 283.894531 285.570312 283.894531 285.570312 L 287.929688 248.433594 Z M 279.464844 218.101562 " fill-opacity="1" fill-rule="nonzero"/><path fill="#e6a423" d="M 114.195312 165.988281 C 114.285156 165.566406 115.292969 163.175781 115.292969 163.175781 L 116.421875 158.46875 C 116.421875 158.46875 114.871094 155.875 114 155.460938 C 112.875 154.972656 109.152344 157.621094 109.152344 157.621094 L 106.144531 161.898438 C 106.144531 161.898438 105.339844 167.589844 106.378906 168.09375 C 107.929688 168.734375 109.542969 169 111.21875 168.882812 C 111.21875 168.882812 114.046875 166.703125 114.195312 165.988281 Z M 114.195312 165.988281 " fill-opacity="1" fill-rule="nonzero"/><path fill="#e6a423" d="M 123.53125 154.835938 C 124.375 155.824219 127.164062 155.296875 127.164062 155.296875 C 127.164062 155.296875 130.050781 152.144531 129.972656 151.167969 C 129.972656 150.695312 130.070312 148.257812 129.140625 146.613281 C 128.628906 145.710938 126.613281 145.777344 126.613281 145.777344 C 126.613281 145.777344 123.992188 146.84375 123.105469 148.738281 C 122.21875 150.632812 122.246094 151.085938 122.246094 151.085938 C 122.246094 151.085938 122.699219 153.859375 123.53125 154.835938 Z M 123.53125 154.835938 " fill-opacity="1" fill-rule="nonzero"/><path fill="#e6a423" d="M 124.660156 162.394531 C 123.496094 161.640625 120.726562 163.144531 120.726562 163.144531 C 120.726562 163.144531 118.632812 167.363281 119 168.363281 C 119.171875 168.84375 119.75 171.417969 121.210938 172.832031 C 122.015625 173.582031 124.105469 172.867188 124.105469 172.867188 C 124.105469 172.867188 126.53125 170.898438 126.90625 168.636719 C 127.285156 166.371094 127.117188 165.90625 127.117188 165.90625 C 127.117188 165.90625 125.824219 163.144531 124.660156 162.394531 Z M 124.660156 162.394531 " fill-opacity="1" fill-rule="nonzero"/><path fill="#e6a423" d="M 101.558594 196.109375 C 100.054688 194.085938 96.570312 196.988281 96.570312 196.988281 C 96.570312 196.988281 94.507812 201.078125 94.652344 202.183594 C 94.71875 202.710938 95.652344 205.664062 96.75 206.425781 C 97.847656 207.183594 100.867188 205.671875 101.90625 205.101562 C 102.703125 204.679688 102.972656 200.75 102.972656 200.75 Z M 101.558594 196.109375 " fill-opacity="1" fill-rule="nonzero"/><g clip-path="url(#e16cebc6e0)"><path fill="#ffffff" d="M 53.957031 136.378906 L 326.488281 136.378906 L 326.488281 266.300781 L 53.957031 266.300781 Z M 53.957031 136.378906 " fill-opacity="1" fill-rule="nonzero"/></g><g fill="#ffd941" fill-opacity="1"><g transform="translate(56.87095, 260.43383)"><g><path d="M 7.984375 0.578125 C 4.179688 0.953125 2.597656 -0.695312 3.234375 -4.375 C 4.628906 -11.726562 5.957031 -20.539062 7.21875 -30.8125 C 8.488281 -41.082031 9.125 -53 9.125 -66.5625 C 9.125 -75.4375 8.773438 -83.929688 8.078125 -92.046875 C 7.378906 -100.160156 6.554688 -107.382812 5.609375 -113.71875 C 4.660156 -120.0625 3.867188 -125.007812 3.234375 -128.5625 C 2.597656 -132.488281 4.179688 -134.132812 7.984375 -133.5 C 9.765625 -133.25 11.765625 -133.023438 13.984375 -132.828125 C 16.203125 -132.640625 18.894531 -132.546875 22.0625 -132.546875 C 25.476562 -132.546875 28.328125 -132.640625 30.609375 -132.828125 C 32.898438 -133.023438 35.054688 -133.3125 37.078125 -133.6875 C 40.753906 -134.070312 42.273438 -132.425781 41.640625 -128.75 C 39.992188 -120.125 38.628906 -110.898438 37.546875 -101.078125 C 36.472656 -91.253906 35.9375 -79.75 35.9375 -66.5625 C 35.9375 -57.4375 36.285156 -49.796875 36.984375 -43.640625 C 37.679688 -37.492188 38.285156 -32.773438 38.796875 -29.484375 C 40.691406 -29.347656 43.351562 -29.25 46.78125 -29.1875 C 50.207031 -29.125 54.101562 -29.691406 58.46875 -30.890625 C 62.84375 -32.097656 67.316406 -34.414062 71.890625 -37.84375 C 73.535156 -38.988281 74.988281 -39.273438 76.25 -38.703125 C 77.519531 -38.128906 78.09375 -36.957031 77.96875 -35.1875 C 77.71875 -29.988281 77.5625 -24.691406 77.5 -19.296875 C 77.4375 -13.910156 77.59375 -8.875 77.96875 -4.1875 C 78.09375 -0.632812 76.445312 0.953125 73.03125 0.578125 C 68.207031 -0.0546875 63.101562 -0.46875 57.71875 -0.65625 C 52.332031 -0.851562 46.46875 -0.953125 40.125 -0.953125 C 34.550781 -0.953125 28.910156 -0.820312 23.203125 -0.5625 C 17.492188 -0.3125 12.421875 0.0664062 7.984375 0.578125 Z M 7.984375 0.578125 "/></g></g></g><g fill="#ffd941" fill-opacity="1"><g transform="translate(104.552826, 210.169357)"><g><path d="M 17.890625 0.28125 C 16.867188 0.09375 15.832031 -0.046875 14.78125 -0.140625 C 13.738281 -0.234375 12.425781 -0.28125 10.84375 -0.28125 C 9.382812 -0.28125 8.128906 -0.234375 7.078125 -0.140625 C 6.035156 -0.046875 5.070312 0.0625 4.1875 0.1875 C 2.28125 0.507812 1.488281 -0.3125 1.8125 -2.28125 C 2.125 -4.0625 2.46875 -6.535156 2.84375 -9.703125 C 3.226562 -12.878906 3.578125 -16.492188 3.890625 -20.546875 C 4.210938 -24.609375 4.375 -28.859375 4.375 -33.296875 C 4.375 -37.734375 4.210938 -41.984375 3.890625 -46.046875 C 3.578125 -50.109375 3.226562 -53.722656 2.84375 -56.890625 C 2.46875 -60.066406 2.125 -62.539062 1.8125 -64.3125 C 1.488281 -66.28125 2.28125 -67.101562 4.1875 -66.78125 C 5.070312 -66.65625 6.035156 -66.546875 7.078125 -66.453125 C 8.128906 -66.359375 9.382812 -66.3125 10.84375 -66.3125 C 12.425781 -66.3125 13.738281 -66.359375 14.78125 -66.453125 C 15.832031 -66.546875 16.867188 -66.691406 17.890625 -66.890625 C 19.785156 -67.078125 20.578125 -66.25 20.265625 -64.40625 C 20.015625 -62.632812 19.679688 -60.160156 19.265625 -56.984375 C 18.847656 -53.816406 18.484375 -50.203125 18.171875 -46.140625 C 17.859375 -42.078125 17.703125 -37.796875 17.703125 -33.296875 C 17.703125 -28.859375 17.859375 -24.609375 18.171875 -20.546875 C 18.484375 -16.492188 18.847656 -12.878906 19.265625 -9.703125 C 19.679688 -6.535156 20.015625 -4.03125 20.265625 -2.1875 C 20.578125 -0.34375 19.785156 0.476562 17.890625 0.28125 Z M 17.890625 0.28125 "/></g></g></g><g fill="#ffd941" fill-opacity="1"><g transform="translate(126.626013, 210.169357)"><g><path d="M 17.125 0.1875 C 15.15625 0.507812 14.332031 -0.28125 14.65625 -2.1875 C 14.84375 -4.03125 15.09375 -6.535156 15.40625 -9.703125 C 15.726562 -12.878906 16.046875 -16.492188 16.359375 -20.546875 C 16.679688 -24.609375 16.90625 -28.859375 17.03125 -33.296875 C 17.15625 -37.421875 17.101562 -41.304688 16.875 -44.953125 C 16.65625 -48.597656 16.390625 -51.847656 16.078125 -54.703125 C 14.492188 -54.828125 12.6875 -54.695312 10.65625 -54.3125 C 8.625 -53.9375 6.375 -53.242188 3.90625 -52.234375 C 3.070312 -51.910156 2.382812 -51.921875 1.84375 -52.265625 C 1.3125 -52.617188 1.078125 -53.273438 1.140625 -54.234375 C 1.265625 -56.515625 1.34375 -58.351562 1.375 -59.75 C 1.40625 -61.144531 1.359375 -62.695312 1.234375 -64.40625 C 1.171875 -65.300781 1.359375 -65.96875 1.796875 -66.40625 C 2.242188 -66.851562 2.878906 -67.015625 3.703125 -66.890625 C 5.609375 -66.628906 7.304688 -66.484375 8.796875 -66.453125 C 10.285156 -66.421875 12.109375 -66.40625 14.265625 -66.40625 L 33.015625 -66.40625 C 35.234375 -66.40625 37.070312 -66.421875 38.53125 -66.453125 C 39.988281 -66.484375 41.671875 -66.628906 43.578125 -66.890625 C 44.398438 -67.015625 45.046875 -66.867188 45.515625 -66.453125 C 45.992188 -66.046875 46.171875 -65.394531 46.046875 -64.5 C 45.984375 -62.851562 45.9375 -61.203125 45.90625 -59.546875 C 45.875 -57.898438 45.921875 -56.097656 46.046875 -54.140625 C 46.109375 -53.242188 45.882812 -52.617188 45.375 -52.265625 C 44.875 -51.921875 44.175781 -51.910156 43.28125 -52.234375 C 38.46875 -54.140625 34.503906 -54.960938 31.390625 -54.703125 C 31.078125 -51.847656 30.789062 -48.597656 30.53125 -44.953125 C 30.28125 -41.304688 30.15625 -37.421875 30.15625 -33.296875 C 30.15625 -28.859375 30.296875 -24.609375 30.578125 -20.546875 C 30.867188 -16.492188 31.203125 -12.878906 31.578125 -9.703125 C 31.960938 -6.535156 32.28125 -4.03125 32.53125 -2.1875 C 32.851562 -0.28125 32.0625 0.507812 30.15625 0.1875 C 29.207031 0.0625 28.222656 -0.046875 27.203125 -0.140625 C 26.191406 -0.234375 24.925781 -0.28125 23.40625 -0.28125 C 21.945312 -0.28125 20.738281 -0.234375 19.78125 -0.140625 C 18.832031 -0.046875 17.945312 0.0625 17.125 0.1875 Z M 17.125 0.1875 "/></g></g></g><g fill="#ffd941" fill-opacity="1"><g transform="translate(173.912118, 210.169357)"><g><path d="M 17.125 0.1875 C 15.15625 0.507812 14.332031 -0.28125 14.65625 -2.1875 C 14.84375 -4.03125 15.09375 -6.535156 15.40625 -9.703125 C 15.726562 -12.878906 16.046875 -16.492188 16.359375 -20.546875 C 16.679688 -24.609375 16.90625 -28.859375 17.03125 -33.296875 C 17.15625 -37.421875 17.101562 -41.304688 16.875 -44.953125 C 16.65625 -48.597656 16.390625 -51.847656 16.078125 -54.703125 C 14.492188 -54.828125 12.6875 -54.695312 10.65625 -54.3125 C 8.625 -53.9375 6.375 -53.242188 3.90625 -52.234375 C 3.070312 -51.910156 2.382812 -51.921875 1.84375 -52.265625 C 1.3125 -52.617188 1.078125 -53.273438 1.140625 -54.234375 C 1.265625 -56.515625 1.34375 -58.351562 1.375 -59.75 C 1.40625 -61.144531 1.359375 -62.695312 1.234375 -64.40625 C 1.171875 -65.300781 1.359375 -65.96875 1.796875 -66.40625 C 2.242188 -66.851562 2.878906 -67.015625 3.703125 -66.890625 C 5.609375 -66.628906 7.304688 -66.484375 8.796875 -66.453125 C 10.285156 -66.421875 12.109375 -66.40625 14.265625 -66.40625 L 33.015625 -66.40625 C 35.234375 -66.40625 37.070312 -66.421875 38.53125 -66.453125 C 39.988281 -66.484375 41.671875 -66.628906 43.578125 -66.890625 C 44.398438 -67.015625 45.046875 -66.867188 45.515625 -66.453125 C 45.992188 -66.046875 46.171875 -65.394531 46.046875 -64.5 C 45.984375 -62.851562 45.9375 -61.203125 45.90625 -59.546875 C 45.875 -57.898438 45.921875 -56.097656 46.046875 -54.140625 C 46.109375 -53.242188 45.882812 -52.617188 45.375 -52.265625 C 44.875 -51.921875 44.175781 -51.910156 43.28125 -52.234375 C 38.46875 -54.140625 34.503906 -54.960938 31.390625 -54.703125 C 31.078125 -51.847656 30.789062 -48.597656 30.53125 -44.953125 C 30.28125 -41.304688 30.15625 -37.421875 30.15625 -33.296875 C 30.15625 -28.859375 30.296875 -24.609375 30.578125 -20.546875 C 30.867188 -16.492188 31.203125 -12.878906 31.578125 -9.703125 C 31.960938 -6.535156 32.28125 -4.03125 32.53125 -2.1875 C 32.851562 -0.28125 32.0625 0.507812 30.15625 0.1875 C 29.207031 0.0625 28.222656 -0.046875 27.203125 -0.140625 C 26.191406 -0.234375 24.925781 -0.28125 23.40625 -0.28125 C 21.945312 -0.28125 20.738281 -0.234375 19.78125 -0.140625 C 18.832031 -0.046875 17.945312 0.0625 17.125 0.1875 Z M 17.125 0.1875 "/></g></g></g><g fill="#ffd941" fill-opacity="1"><g transform="translate(221.198224, 210.169357)"><g><path d="M 4 0.28125 C 2.09375 0.476562 1.300781 -0.34375 1.625 -2.1875 C 2.3125 -5.863281 2.972656 -10.269531 3.609375 -15.40625 C 4.242188 -20.550781 4.5625 -26.515625 4.5625 -33.296875 C 4.5625 -37.734375 4.382812 -41.984375 4.03125 -46.046875 C 3.6875 -50.109375 3.273438 -53.722656 2.796875 -56.890625 C 2.328125 -60.066406 1.9375 -62.539062 1.625 -64.3125 C 1.300781 -66.28125 2.09375 -67.101562 4 -66.78125 C 4.882812 -66.65625 5.878906 -66.546875 6.984375 -66.453125 C 8.097656 -66.359375 9.445312 -66.3125 11.03125 -66.3125 C 12.75 -66.3125 14.175781 -66.359375 15.3125 -66.453125 C 16.457031 -66.546875 17.535156 -66.691406 18.546875 -66.890625 C 20.390625 -67.078125 21.148438 -66.25 20.828125 -64.40625 C 20.003906 -60.09375 19.320312 -55.476562 18.78125 -50.5625 C 18.25 -45.644531 17.984375 -39.890625 17.984375 -33.296875 C 17.984375 -28.734375 18.15625 -24.910156 18.5 -21.828125 C 18.851562 -18.753906 19.15625 -16.394531 19.40625 -14.75 C 20.351562 -14.6875 21.679688 -14.640625 23.390625 -14.609375 C 25.109375 -14.578125 27.0625 -14.859375 29.25 -15.453125 C 31.4375 -16.054688 33.675781 -17.21875 35.96875 -18.9375 C 36.789062 -19.507812 37.519531 -19.648438 38.15625 -19.359375 C 38.789062 -19.078125 39.070312 -18.488281 39 -17.59375 C 38.875 -15 38.796875 -12.351562 38.765625 -9.65625 C 38.734375 -6.957031 38.8125 -4.4375 39 -2.09375 C 39.070312 -0.3125 38.25 0.476562 36.53125 0.28125 C 34.125 -0.03125 31.570312 -0.234375 28.875 -0.328125 C 26.175781 -0.421875 23.242188 -0.46875 20.078125 -0.46875 C 17.285156 -0.46875 14.460938 -0.40625 11.609375 -0.28125 C 8.753906 -0.15625 6.21875 0.03125 4 0.28125 Z M 4 0.28125 "/></g></g></g><g fill="#ffd941" fill-opacity="1"><g transform="translate(261.729165, 210.169357)"><g><path d="M 3.90625 0.28125 C 2 0.476562 1.238281 -0.34375 1.625 -2.1875 C 1.9375 -4.03125 2.328125 -6.535156 2.796875 -9.703125 C 3.273438 -12.878906 3.6875 -16.492188 4.03125 -20.546875 C 4.382812 -24.609375 4.5625 -28.859375 4.5625 -33.296875 C 4.5625 -37.734375 4.382812 -41.984375 4.03125 -46.046875 C 3.6875 -50.109375 3.273438 -53.738281 2.796875 -56.9375 C 2.328125 -60.144531 1.9375 -62.632812 1.625 -64.40625 C 1.238281 -66.25 2 -67.078125 3.90625 -66.890625 C 6.375 -66.628906 9.097656 -66.421875 12.078125 -66.265625 C 15.054688 -66.109375 18.050781 -66.03125 21.0625 -66.03125 C 24.082031 -66.03125 26.957031 -66.109375 29.6875 -66.265625 C 32.414062 -66.421875 34.757812 -66.660156 36.71875 -66.984375 C 38.4375 -67.296875 39.195312 -66.4375 39 -64.40625 C 38.875 -62.25 38.8125 -60.234375 38.8125 -58.359375 C 38.8125 -56.492188 38.875 -54.195312 39 -51.46875 C 39 -49.3125 38.050781 -48.835938 36.15625 -50.046875 C 34 -51.628906 31.84375 -52.691406 29.6875 -53.234375 C 27.53125 -53.773438 25.5625 -54.046875 23.78125 -54.046875 C 22.007812 -54.046875 20.550781 -54.007812 19.40625 -53.9375 C 19.40625 -53.9375 19.328125 -53.144531 19.171875 -51.5625 C 19.015625 -49.976562 18.835938 -48.03125 18.640625 -45.71875 C 18.453125 -43.40625 18.265625 -41.101562 18.078125 -38.8125 C 19.910156 -38.8125 21.796875 -39.066406 23.734375 -39.578125 C 25.671875 -40.085938 27.335938 -40.660156 28.734375 -41.296875 C 29.554688 -41.609375 30.15625 -41.671875 30.53125 -41.484375 C 30.914062 -41.296875 31.046875 -40.722656 30.921875 -39.765625 C 30.859375 -38.878906 30.8125 -37.972656 30.78125 -37.046875 C 30.75 -36.128906 30.734375 -35.164062 30.734375 -34.15625 C 30.734375 -33.269531 30.734375 -32.363281 30.734375 -31.4375 C 30.734375 -30.519531 30.765625 -29.617188 30.828125 -28.734375 C 31.015625 -26.953125 30.253906 -26.441406 28.546875 -27.203125 C 27.148438 -27.773438 25.46875 -28.285156 23.5 -28.734375 C 21.53125 -29.179688 19.691406 -29.40625 17.984375 -29.40625 C 18.109375 -27.6875 18.25 -25.859375 18.40625 -23.921875 C 18.5625 -21.992188 18.71875 -20.171875 18.875 -18.453125 C 19.039062 -16.742188 19.171875 -15.347656 19.265625 -14.265625 C 19.359375 -13.191406 19.40625 -12.65625 19.40625 -12.65625 C 20.550781 -12.59375 22.101562 -12.609375 24.0625 -12.703125 C 26.03125 -12.796875 28.203125 -13.175781 30.578125 -13.84375 C 32.960938 -14.507812 35.265625 -15.695312 37.484375 -17.40625 C 39.003906 -18.425781 39.734375 -18.046875 39.671875 -16.265625 C 39.546875 -13.984375 39.5 -11.554688 39.53125 -8.984375 C 39.5625 -6.421875 39.703125 -4.125 39.953125 -2.09375 C 40.148438 -0.3125 39.359375 0.476562 37.578125 0.28125 C 34.910156 -0.03125 32.085938 -0.234375 29.109375 -0.328125 C 26.128906 -0.421875 23.210938 -0.46875 20.359375 -0.46875 C 14.078125 -0.46875 8.59375 -0.21875 3.90625 0.28125 Z M 3.90625 0.28125 "/></g></g></g><g fill="#097d4c" fill-opacity="1"><g transform="translate(151.170414, 253.815253)"><g><path d="M 2.046875 0.140625 C 1.066406 0.242188 0.660156 -0.175781 0.828125 -1.125 C 1.179688 -3.007812 1.519531 -5.265625 1.84375 -7.890625 C 2.175781 -10.523438 2.34375 -13.582031 2.34375 -17.0625 C 2.34375 -19.34375 2.25 -21.519531 2.0625 -23.59375 C 1.882812 -25.675781 1.675781 -27.53125 1.4375 -29.15625 C 1.195312 -30.78125 0.992188 -32.050781 0.828125 -32.96875 C 0.660156 -33.976562 1.066406 -34.398438 2.046875 -34.234375 C 2.503906 -34.171875 3.015625 -34.113281 3.578125 -34.0625 C 4.148438 -34.007812 4.84375 -33.984375 5.65625 -33.984375 C 6.53125 -33.984375 7.257812 -34.007812 7.84375 -34.0625 C 8.4375 -34.113281 8.992188 -34.1875 9.515625 -34.28125 C 10.453125 -34.375 10.835938 -33.953125 10.671875 -33.015625 C 10.253906 -30.804688 9.90625 -28.441406 9.625 -25.921875 C 9.351562 -23.398438 9.21875 -20.445312 9.21875 -17.0625 C 9.21875 -14.726562 9.304688 -12.769531 9.484375 -11.1875 C 9.660156 -9.613281 9.816406 -8.40625 9.953125 -7.5625 C 10.429688 -7.53125 11.109375 -7.503906 11.984375 -7.484375 C 12.867188 -7.472656 13.867188 -7.617188 14.984375 -7.921875 C 16.109375 -8.234375 17.257812 -8.828125 18.4375 -9.703125 C 18.851562 -9.992188 19.222656 -10.066406 19.546875 -9.921875 C 19.878906 -9.773438 20.03125 -9.472656 20 -9.015625 C 19.925781 -7.679688 19.878906 -6.320312 19.859375 -4.9375 C 19.847656 -3.5625 19.894531 -2.273438 20 -1.078125 C 20.03125 -0.160156 19.601562 0.242188 18.71875 0.140625 C 17.488281 -0.015625 16.179688 -0.117188 14.796875 -0.171875 C 13.421875 -0.222656 11.921875 -0.25 10.296875 -0.25 C 8.859375 -0.25 7.40625 -0.210938 5.9375 -0.140625 C 4.476562 -0.078125 3.179688 0.015625 2.046875 0.140625 Z M 2.046875 0.140625 "/></g></g></g><g fill="#097d4c" fill-opacity="1"><g transform="translate(171.945911, 253.815253)"><g><path d="M 2 0.140625 C 1.019531 0.242188 0.628906 -0.175781 0.828125 -1.125 C 0.992188 -2.0625 1.195312 -3.34375 1.4375 -4.96875 C 1.675781 -6.59375 1.882812 -8.445312 2.0625 -10.53125 C 2.25 -12.613281 2.34375 -14.789062 2.34375 -17.0625 C 2.34375 -19.34375 2.25 -21.519531 2.0625 -23.59375 C 1.882812 -25.675781 1.675781 -27.539062 1.4375 -29.1875 C 1.195312 -30.832031 0.992188 -32.109375 0.828125 -33.015625 C 0.628906 -33.953125 1.019531 -34.375 2 -34.28125 C 3.269531 -34.15625 4.664062 -34.050781 6.1875 -33.96875 C 7.71875 -33.882812 9.253906 -33.84375 10.796875 -33.84375 C 12.347656 -33.84375 13.820312 -33.882812 15.21875 -33.96875 C 16.613281 -34.050781 17.816406 -34.171875 18.828125 -34.328125 C 19.703125 -34.492188 20.09375 -34.054688 20 -33.015625 C 19.925781 -31.910156 19.890625 -30.878906 19.890625 -29.921875 C 19.890625 -28.960938 19.925781 -27.78125 20 -26.375 C 20 -25.269531 19.507812 -25.03125 18.53125 -25.65625 C 17.425781 -26.46875 16.320312 -27.007812 15.21875 -27.28125 C 14.113281 -27.5625 13.101562 -27.703125 12.1875 -27.703125 C 11.28125 -27.703125 10.535156 -27.6875 9.953125 -27.65625 C 9.953125 -27.65625 9.910156 -27.25 9.828125 -26.4375 C 9.742188 -25.625 9.648438 -24.625 9.546875 -23.4375 C 9.453125 -22.25 9.359375 -21.066406 9.265625 -19.890625 C 10.203125 -19.890625 11.164062 -20.019531 12.15625 -20.28125 C 13.15625 -20.539062 14.015625 -20.835938 14.734375 -21.171875 C 15.148438 -21.328125 15.457031 -21.351562 15.65625 -21.25 C 15.851562 -21.15625 15.914062 -20.867188 15.84375 -20.390625 C 15.8125 -19.929688 15.785156 -19.460938 15.765625 -18.984375 C 15.753906 -18.515625 15.75 -18.019531 15.75 -17.5 C 15.75 -17.050781 15.75 -16.585938 15.75 -16.109375 C 15.75 -15.640625 15.765625 -15.179688 15.796875 -14.734375 C 15.898438 -13.816406 15.507812 -13.554688 14.625 -13.953125 C 13.914062 -14.242188 13.054688 -14.5 12.046875 -14.71875 C 11.035156 -14.945312 10.09375 -15.0625 9.21875 -15.0625 C 9.28125 -14.1875 9.351562 -13.253906 9.4375 -12.265625 C 9.519531 -11.273438 9.597656 -10.335938 9.671875 -9.453125 C 9.753906 -8.578125 9.820312 -7.863281 9.875 -7.3125 C 9.925781 -6.757812 9.953125 -6.484375 9.953125 -6.484375 C 10.535156 -6.453125 11.328125 -6.457031 12.328125 -6.5 C 13.335938 -6.550781 14.453125 -6.75 15.671875 -7.09375 C 16.890625 -7.4375 18.070312 -8.046875 19.21875 -8.921875 C 20 -9.441406 20.367188 -9.25 20.328125 -8.34375 C 20.265625 -7.164062 20.238281 -5.921875 20.25 -4.609375 C 20.269531 -3.296875 20.347656 -2.117188 20.484375 -1.078125 C 20.578125 -0.160156 20.171875 0.242188 19.265625 0.140625 C 17.898438 -0.015625 16.453125 -0.117188 14.921875 -0.171875 C 13.390625 -0.222656 11.894531 -0.25 10.4375 -0.25 C 7.21875 -0.25 4.40625 -0.117188 2 0.140625 Z M 2 0.140625 "/></g></g></g><g fill="#097d4c" fill-opacity="1"><g transform="translate(193.306635, 253.815253)"><g><path d="M 17.5625 0.34375 L 15.3125 0.34375 C 14.5625 0.34375 14.109375 -0.046875 13.953125 -0.828125 C 13.722656 -2.296875 13.441406 -3.847656 13.109375 -5.484375 C 12.785156 -7.128906 12.46875 -8.695312 12.15625 -10.1875 C 11.851562 -11.6875 11.585938 -12.941406 11.359375 -13.953125 C 11.035156 -15.578125 10.703125 -17 10.359375 -18.21875 C 10.015625 -19.4375 9.664062 -20.546875 9.3125 -21.546875 L 9.3125 -21.40625 C 9.25 -20.6875 9.191406 -19.96875 9.140625 -19.25 C 9.097656 -18.539062 9.078125 -17.8125 9.078125 -17.0625 C 9.078125 -14.789062 9.164062 -12.613281 9.34375 -10.53125 C 9.519531 -8.445312 9.726562 -6.59375 9.96875 -4.96875 C 10.21875 -3.34375 10.421875 -2.078125 10.578125 -1.171875 C 10.640625 -0.742188 10.570312 -0.398438 10.375 -0.140625 C 10.1875 0.117188 9.847656 0.210938 9.359375 0.140625 C 8.742188 0.046875 8.207031 -0.0195312 7.75 -0.0625 C 7.300781 -0.113281 6.570312 -0.140625 5.5625 -0.140625 C 4.75 -0.140625 4.054688 -0.113281 3.484375 -0.0625 C 2.921875 -0.0195312 2.394531 0.03125 1.90625 0.09375 C 0.925781 0.257812 0.535156 -0.175781 0.734375 -1.21875 C 0.890625 -2.125 1.082031 -3.378906 1.3125 -4.984375 C 1.539062 -6.597656 1.742188 -8.445312 1.921875 -10.53125 C 2.097656 -12.613281 2.1875 -14.789062 2.1875 -17.0625 C 2.1875 -19.34375 2.097656 -21.519531 1.921875 -23.59375 C 1.742188 -25.675781 1.539062 -27.53125 1.3125 -29.15625 C 1.082031 -30.78125 0.890625 -32.050781 0.734375 -32.96875 C 0.566406 -33.976562 0.957031 -34.398438 1.90625 -34.234375 C 2.394531 -34.171875 2.921875 -34.113281 3.484375 -34.0625 C 4.054688 -34.007812 4.75 -33.984375 5.5625 -33.984375 C 6.5 -33.984375 7.429688 -34.015625 8.359375 -34.078125 C 9.285156 -34.148438 10.15625 -34.234375 10.96875 -34.328125 C 11.75 -34.429688 12.1875 -34.078125 12.28125 -33.265625 C 12.539062 -31.273438 13.066406 -28.566406 13.859375 -25.140625 C 14.660156 -21.710938 15.519531 -17.769531 16.4375 -13.3125 C 17.34375 -17.507812 18.207031 -21.351562 19.03125 -24.84375 C 19.863281 -28.34375 20.394531 -31.148438 20.625 -33.265625 C 20.726562 -34.035156 21.164062 -34.375 21.9375 -34.28125 C 22.65625 -34.21875 23.4375 -34.148438 24.28125 -34.078125 C 25.125 -34.015625 26.066406 -33.984375 27.109375 -33.984375 C 27.828125 -33.984375 28.375 -33.988281 28.75 -34 C 29.125 -34.019531 29.460938 -34.054688 29.765625 -34.109375 C 30.078125 -34.160156 30.460938 -34.21875 30.921875 -34.28125 C 31.367188 -34.34375 31.707031 -34.257812 31.9375 -34.03125 C 32.164062 -33.8125 32.234375 -33.441406 32.140625 -32.921875 C 31.972656 -32.035156 31.773438 -30.78125 31.546875 -29.15625 C 31.316406 -27.53125 31.113281 -25.6875 30.9375 -23.625 C 30.757812 -21.5625 30.671875 -19.375 30.671875 -17.0625 C 30.671875 -14.789062 30.757812 -12.613281 30.9375 -10.53125 C 31.113281 -8.445312 31.316406 -6.597656 31.546875 -4.984375 C 31.773438 -3.378906 31.972656 -2.125 32.140625 -1.21875 C 32.234375 -0.695312 32.164062 -0.320312 31.9375 -0.09375 C 31.707031 0.132812 31.367188 0.210938 30.921875 0.140625 C 30.460938 0.078125 30.078125 0.0234375 29.765625 -0.015625 C 29.460938 -0.0664062 29.125 -0.0976562 28.75 -0.109375 C 28.375 -0.128906 27.828125 -0.140625 27.109375 -0.140625 C 26.296875 -0.140625 25.601562 -0.113281 25.03125 -0.0625 C 24.46875 -0.0195312 23.957031 0.03125 23.5 0.09375 C 22.5 0.257812 22.09375 -0.160156 22.28125 -1.171875 C 22.476562 -2.109375 22.691406 -3.378906 22.921875 -4.984375 C 23.148438 -6.597656 23.351562 -8.445312 23.53125 -10.53125 C 23.707031 -12.613281 23.796875 -14.789062 23.796875 -17.0625 C 23.796875 -17.8125 23.78125 -18.523438 23.75 -19.203125 C 23.71875 -19.890625 23.671875 -20.578125 23.609375 -21.265625 L 23.546875 -21.75 C 23.421875 -21.132812 23.171875 -20.148438 22.796875 -18.796875 C 22.421875 -17.453125 22.039062 -15.835938 21.65625 -13.953125 C 21.257812 -12.128906 20.828125 -10.148438 20.359375 -8.015625 C 19.890625 -5.890625 19.410156 -3.476562 18.921875 -0.78125 C 18.753906 -0.03125 18.300781 0.34375 17.5625 0.34375 Z M 17.5625 0.34375 "/></g></g></g><g fill="#097d4c" fill-opacity="1"><g transform="translate(226.176788, 253.815253)"><g><path d="M 12.484375 0.734375 C 8.742188 0.734375 5.832031 -0.71875 3.75 -3.625 C 1.675781 -6.539062 0.640625 -11.035156 0.640625 -17.109375 C 0.640625 -22.671875 1.675781 -27.019531 3.75 -30.15625 C 5.832031 -33.300781 8.742188 -34.875 12.484375 -34.875 C 16.222656 -34.875 19.125 -33.300781 21.1875 -30.15625 C 23.25 -27.019531 24.28125 -22.671875 24.28125 -17.109375 C 24.28125 -11.035156 23.25 -6.539062 21.1875 -3.625 C 19.125 -0.71875 16.222656 0.734375 12.484375 0.734375 Z M 12.4375 -6.09375 C 13.25 -6.09375 13.945312 -6.570312 14.53125 -7.53125 C 15.113281 -8.488281 15.566406 -9.785156 15.890625 -11.421875 C 16.222656 -13.066406 16.390625 -14.898438 16.390625 -16.921875 C 16.390625 -20.304688 16.03125 -23.003906 15.3125 -25.015625 C 14.59375 -27.035156 13.632812 -28.046875 12.4375 -28.046875 C 11.226562 -28.046875 10.265625 -27.035156 9.546875 -25.015625 C 8.835938 -23.003906 8.484375 -20.304688 8.484375 -16.921875 C 8.484375 -14.898438 8.644531 -13.066406 8.96875 -11.421875 C 9.289062 -9.785156 9.753906 -8.488281 10.359375 -7.53125 C 10.960938 -6.570312 11.65625 -6.09375 12.4375 -6.09375 Z M 12.4375 -6.09375 "/></g></g></g><g fill="#097d4c" fill-opacity="1"><g transform="translate(251.097636, 253.815253)"><g><path d="M 9.40625 0.140625 C 8.882812 0.046875 8.335938 -0.0195312 7.765625 -0.0625 C 7.203125 -0.113281 6.484375 -0.140625 5.609375 -0.140625 C 4.796875 -0.140625 4.101562 -0.113281 3.53125 -0.0625 C 2.96875 -0.0195312 2.441406 0.03125 1.953125 0.09375 C 1.523438 0.15625 1.195312 0.078125 0.96875 -0.140625 C 0.75 -0.367188 0.6875 -0.710938 0.78125 -1.171875 C 0.945312 -2.109375 1.148438 -3.378906 1.390625 -4.984375 C 1.628906 -6.597656 1.835938 -8.445312 2.015625 -10.53125 C 2.203125 -12.613281 2.296875 -14.789062 2.296875 -17.0625 C 2.296875 -19.34375 2.203125 -21.519531 2.015625 -23.59375 C 1.835938 -25.675781 1.628906 -27.53125 1.390625 -29.15625 C 1.148438 -30.78125 0.945312 -32.050781 0.78125 -32.96875 C 0.6875 -33.414062 0.75 -33.753906 0.96875 -33.984375 C 1.195312 -34.210938 1.523438 -34.296875 1.953125 -34.234375 C 2.503906 -34.171875 3.085938 -34.113281 3.703125 -34.0625 C 4.316406 -34.007812 5.050781 -33.984375 5.90625 -33.984375 C 6.84375 -33.984375 7.660156 -34.015625 8.359375 -34.078125 C 9.054688 -34.148438 9.734375 -34.21875 10.390625 -34.28125 C 11.234375 -34.414062 11.65625 -34.007812 11.65625 -33.0625 C 11.625 -31.863281 11.71875 -30.539062 11.9375 -29.09375 C 12.164062 -27.644531 12.492188 -26.210938 12.921875 -24.796875 C 13.347656 -23.378906 13.820312 -22.101562 14.34375 -20.96875 C 15.375 -18.820312 16.410156 -16.835938 17.453125 -15.015625 L 17.5 -17.0625 C 17.5 -19.34375 17.410156 -21.519531 17.234375 -23.59375 C 17.054688 -25.675781 16.84375 -27.53125 16.59375 -29.15625 C 16.351562 -30.78125 16.15625 -32.050781 16 -32.96875 C 15.832031 -33.976562 16.238281 -34.398438 17.21875 -34.234375 C 17.664062 -34.171875 18.175781 -34.113281 18.75 -34.0625 C 19.320312 -34.007812 20.015625 -33.984375 20.828125 -33.984375 C 21.703125 -33.984375 22.429688 -34.007812 23.015625 -34.0625 C 23.597656 -34.113281 24.164062 -34.1875 24.71875 -34.28125 C 25.664062 -34.375 26.054688 -33.953125 25.890625 -33.015625 C 25.660156 -31.679688 25.429688 -30.316406 25.203125 -28.921875 C 24.984375 -27.523438 24.789062 -25.890625 24.625 -24.015625 C 24.46875 -22.148438 24.367188 -19.832031 24.328125 -17.0625 C 24.328125 -14.789062 24.414062 -12.613281 24.59375 -10.53125 C 24.78125 -8.445312 24.992188 -6.59375 25.234375 -4.96875 C 25.484375 -3.34375 25.6875 -2.078125 25.84375 -1.171875 C 25.9375 -0.710938 25.878906 -0.367188 25.671875 -0.140625 C 25.460938 0.078125 25.128906 0.171875 24.671875 0.140625 C 24.148438 0.046875 23.597656 -0.0195312 23.015625 -0.0625 C 22.429688 -0.113281 21.703125 -0.140625 20.828125 -0.140625 C 19.910156 -0.140625 19.160156 -0.109375 18.578125 -0.046875 C 17.992188 0.015625 17.425781 0.078125 16.875 0.140625 C 16.125 0.304688 15.664062 -0.046875 15.5 -0.921875 C 15.34375 -1.835938 15.082031 -3.09375 14.71875 -4.6875 C 14.363281 -6.28125 13.898438 -8.007812 13.328125 -9.875 C 12.765625 -11.738281 12.078125 -13.503906 11.265625 -15.171875 C 10.835938 -16.046875 10.453125 -16.820312 10.109375 -17.5 C 9.773438 -18.1875 9.460938 -18.804688 9.171875 -19.359375 C 9.140625 -19.003906 9.125 -18.628906 9.125 -18.234375 C 9.125 -17.847656 9.125 -17.457031 9.125 -17.0625 C 9.125 -14.789062 9.210938 -12.613281 9.390625 -10.53125 C 9.566406 -8.445312 9.773438 -6.59375 10.015625 -4.96875 C 10.265625 -3.34375 10.46875 -2.078125 10.625 -1.171875 C 10.726562 -0.710938 10.664062 -0.367188 10.4375 -0.140625 C 10.207031 0.078125 9.863281 0.171875 9.40625 0.140625 Z M 9.40625 0.140625 "/></g></g></g></svg>