<svg xmlns="http://www.w3.org/2000/svg" width="100" height="50" version="1.0" viewBox="0 0 75 37.5"><path fill="#42961e" d="M4.991 22.558q-.111-.011-.14-.093a.32.32 0 0 1-.016-.188l.14-.375q-.001-.013.016-.031v-9.609000000000002q-.017-.012-.016-.047l-.14-.375q-.017-.013-.016-.078 0-.077.063-.141a.22.22 0 0 1 .156-.063h1.156a.27.27 0 0 1 .188.079q.06.11.015.203l-.125.375a.13.13 0 0 0-.015.062v8.813c0 .062.02.117.062.156q.047.063.14.062h2.376q.045 0 .062-.015l.39-.125a.2.2 0 0 1 .079-.016q.201.002.203.203v1a.22.22 0 0 1-.062.157.2.2 0 0 1-.157.062H4.991ZM10.791 22.574a.19.19 0 0 1-.172-.094.22.22 0 0 1-.031-.203l.14-.375q0-.013.016-.031v-6.797a.04.04 0 0 1-.015-.031l-.141-.39q-.017-.015-.016-.063 0-.094.063-.157a.22.22 0 0 1 .156-.062h1.156a.27.27 0 0 1 .188.078c.039.074.047.14.016.203l-.125.39q-.017.017-.016.063v6.735c0 .03.004.054.016.062l.125.375c.007.024.015.043.015.063a.24.24 0 0 1-.062.172.2.2 0 0 1-.157.062Zm0 0"/><path fill="#42961e" d="M14.783 22.574a.19.19 0 0 1-.172-.094.22.22 0 0 1-.03-.203l.14-.375q.013-.014.015-.062v-8.5q0-.186-.172-.22a7.7 7.7 0 0 1-1.28-.39q-.644-.247-1.25-.5-.622-.232-1.22-.406a4 4 0 0 0-1.187-.187c-.352 0-.688.062-1 .187q-.388.128-.594.297a1 1 0 0 0-.281.328.7.7 0 0 0-.125.297q-.03.142-.047.219-.012.174-.187.172a.15.15 0 0 1-.11-.047l-.86-.532q-.107-.075-.109-.187 0-.046.047-.11.112-.169.25-.39.143-.217.344-.438.206-.216.5-.437.3-.2.734-.36a4 4 0 0 1 1.422-.265q.831.001 1.61.266.785.25 1.547.53.731.318 1.468.563.717.251 1.422.25.387.001.797-.11.388-.104.781-.374.359-.233.547-.453.171-.2.266-.375a.75.75 0 0 0 .11-.297c0-.082.007-.145.03-.188q.028-.17.204-.171.059 0 .093.03l.86.532c.07.043.11.102.11.172q-.002.081-.032.11l-.266.437a4 4 0 0 1-1.234 1.265 3.96 3.96 0 0 1-1.735.641.3.3 0 0 0-.14.078.2.2 0 0 0-.063.14v8.423q-.001.018.016.03v.032l.14.375c.008.024.016.047.016.078a.25.25 0 0 1-.047.157.23.23 0 0 1-.172.062Zm0 0"/><path fill="#42961e" d="M19.918 22.574a.19.19 0 0 1-.172-.094.22.22 0 0 1-.03-.203l.14-.375q.014-.014.015-.062v-8.5q0-.186-.171-.22a7.7 7.7 0 0 1-1.282-.39c-.43-.164-.843-.332-1.25-.5q-.621-.232-1.218-.406a4 4 0 0 0-1.188-.187c-.351 0-.687.062-1 .187q-.388.128-.594.297a1 1 0 0 0-.28.328.7.7 0 0 0-.126.297q-.03.142-.047.219-.012.174-.187.172a.15.15 0 0 1-.11-.047l-.859-.532c-.07-.05-.11-.113-.11-.187q0-.046.047-.11.111-.169.25-.39.143-.217.344-.438.207-.216.5-.437.3-.2.735-.36a4 4 0 0 1 1.421-.265q.831.001 1.61.266.785.25 1.547.53.731.318 1.468.563c.477.168.954.25 1.422.25q.387.001.797-.11.388-.104.781-.374.359-.233.547-.453.171-.2.266-.375a.75.75 0 0 0 .11-.297c0-.082.007-.145.03-.188q.03-.17.204-.171.059 0 .093.03l.86.532c.07.043.11.102.11.172q-.002.081-.032.11l-.266.437a4 4 0 0 1-1.234 1.265 3.96 3.96 0 0 1-1.734.641.3.3 0 0 0-.141.078.2.2 0 0 0-.063.14v8.423q-.001.018.016.03v.032l.14.375a.248.248 0 0 1-.031.234.23.23 0 0 1-.171.063ZM23.866 22.558q-.111-.011-.14-.093a.32.32 0 0 1-.016-.188l.14-.375q-.001-.013.016-.031v-6.797a.04.04 0 0 1-.016-.031l-.14-.39q-.017-.015-.016-.063 0-.094.063-.157a.22.22 0 0 1 .156-.062h1.156a.27.27 0 0 1 .188.078q.06.11.015.203l-.125.39q-.017.017-.015.063v5.985c0 .062.02.117.062.156q.047.063.14.062h1.985q.06 0 .078-.015l.39-.125a.2.2 0 0 1 .079-.016q.201.002.203.203v1a.22.22 0 0 1-.062.157.2.2 0 0 1-.157.062h-3.984ZM31.428 20.824h-2.187q-.111-.029-.14-.11a.3.3 0 0 1-.016-.171l.14-.375q-.001-.03.016-.047v-5.047a.04.04 0 0 1-.016-.031l-.14-.39q-.017-.015-.016-.063-.002-.17.172-.203v-.016h4.36q.092.002.155.062.061.063.063.157v1a.2.2 0 0 1-.078.172.2.2 0 0 1-.203.015l-.391-.14H30.71a.17.17 0 0 0-.141.062.2.2 0 0 0-.063.14v.423q0 .079.063.125.044.063.125.062h1.547a.2.2 0 0 0 .078-.016l.375-.14h.078q.201.002.203.203v1.172a.19.19 0 0 1-.094.172.19.19 0 0 1-.187.03l-.375-.14c-.024-.008-.047-.015-.078-.015h-1.547a.17.17 0 0 0-.125.047.2.2 0 0 0-.063.14v1.453q0 .096.063.157.047.063.14.062h2.376q.044.001.062-.016l.39-.14a.2.2 0 0 1 .079-.016q.201.002.203.203v1.016a.2.2 0 0 1-.063.14.2.2 0 0 1-.156.063Zm-2.14 1.75a.2.2 0 0 1-.157-.062.2.2 0 0 1-.062-.157v-.547q0-.092.062-.156a.22.22 0 0 1 .157-.062H33.6q.093.002.156.062.061.064.063.156v.547a.22.22 0 0 1-.063.157.2.2 0 0 1-.156.062Zm0 0"/><path fill="#ffde59" d="M39.04 22.558q-.11-.011-.14-.093a.32.32 0 0 1-.016-.188l.14-.375q0-.013.016-.031v-9.609000000000002q-.016-.012-.015-.047l-.14-.375q-.017-.013-.016-.078 0-.077.062-.141a.22.22 0 0 1 .156-.063h1.157a.27.27 0 0 1 .187.079q.061.11.016.203l-.125.375a.13.13 0 0 0-.016.062v8.813c0 .062.02.117.063.156q.046.063.14.062h2.375q.046 0 .063-.015l.39-.125a.2.2 0 0 1 .078-.016c.133 0 .204.07.204.203v1a.22.22 0 0 1-.063.157.2.2 0 0 1-.156.062h-4.36ZM46.981 20.824h-2.187q-.111-.029-.14-.11a.3.3 0 0 1-.016-.171l.14-.375q-.001-.03.016-.047v-5.047a.04.04 0 0 1-.016-.031l-.14-.39q-.017-.015-.016-.063-.002-.17.172-.203v-.016h4.36q.092.002.155.062.062.063.063.157v1a.2.2 0 0 1-.078.172.2.2 0 0 1-.203.015l-.39-.14h-2.438a.17.17 0 0 0-.141.062.2.2 0 0 0-.063.14v.423q0 .079.063.125c.031.042.07.062.125.062h1.547a.2.2 0 0 0 .078-.016l.375-.14h.078q.201.002.203.203v1.172a.19.19 0 0 1-.094.172.19.19 0 0 1-.187.03l-.375-.14q-.033-.014-.078-.015h-1.547a.17.17 0 0 0-.125.047.2.2 0 0 0-.063.14v1.453q0 .096.063.157.047.063.14.062h2.376q.044.001.062-.016l.39-.14a.2.2 0 0 1 .079-.016q.201.002.203.203v1.016a.2.2 0 0 1-.063.14.2.2 0 0 1-.156.063Zm-2.14 1.75a.2.2 0 0 1-.157-.062.2.2 0 0 1-.062-.157v-.547q0-.092.062-.156a.22.22 0 0 1 .157-.062h4.312q.093.002.156.062.062.064.063.156v.547a.22.22 0 0 1-.063.157.2.2 0 0 1-.156.062ZM50.846 22.574a.19.19 0 0 1-.171-.094.22.22 0 0 1-.032-.203l.14-.375q0-.013.017-.031v-6.797a.04.04 0 0 1-.016-.031l-.14-.39q-.017-.015-.016-.063 0-.094.062-.157a.22.22 0 0 1 .156-.062h1.157a.27.27 0 0 1 .187.078q.061.11.016.203l-.047.125 2.016 4.281q-.001.047.062.047.075 0 .094-.047l2-4.28-.047-.126v-.062q0-.094.062-.157a.17.17 0 0 1 .141-.062h1.172q.091 0 .172.078.059.11.031.203l-.14.39q-.017.017-.016.063v6.735c0 .03.004.054.015.062l.141.375v.063a.24.24 0 0 1-.062.172.2.2 0 0 1-.141.062h-1.172a.19.19 0 0 1-.172-.094.22.22 0 0 1-.031-.203l.14-.375q.014-.014.016-.062v-4.172q0-.076-.078-.094-.082-.012-.094.047l-1.343 2.86q-.036.095 0 .156l.109.296v.079a.3.3 0 0 1-.047.156.2.2 0 0 1-.156.062h-1.156q-.113.001-.172-.11-.066-.093-.032-.187l.11-.296a.3.3 0 0 0-.016-.157l-1.328-2.86a.11.11 0 0 0-.094-.046q-.08 0-.078.094v4.172c0 .03.004.054.016.062l.125.375q.014.035.015.063a.24.24 0 0 1-.062.172.2.2 0 0 1-.156.062ZM61.556 20.824q-.58.001-1.062-.25a2.6 2.6 0 0 1-.844-.687 3.1 3.1 0 0 1-.562-1.032 3.5 3.5 0 0 1-.22-1.25q-.002-.668.22-1.265.198-.575.562-1.032.358-.435.844-.687c.332-.164.687-.25 1.062-.25s.723.086 1.047.25c.32.18.61.406.86.687q.34.457.562 1.047c.133.399.203.813.203 1.25a3.9 3.9 0 0 1-.203 1.25 3.8 3.8 0 0 1-.562 1.032c-.25.292-.54.523-.86.687q-.502.251-1.047.25m0-1.25a1 1 0 0 0 .547-.172c.164-.101.313-.238.438-.406a2.5 2.5 0 0 0 .312-.64c.07-.227.11-.477.11-.75 0-.27-.04-.532-.11-.782a2.8 2.8 0 0 0-.312-.61 2.2 2.2 0 0 0-.453-.437 1.14 1.14 0 0 0-.532-.14q-.299 0-.547.14a1.8 1.8 0 0 0-.437.438q-.205.27-.328.609-.11.376-.11.781 0 .411.11.75.123.376.328.64.187.255.437.407a.9.9 0 0 0 .547.172m-2.468 3a.2.2 0 0 1-.157-.062.2.2 0 0 1-.062-.157v-.547q0-.092.062-.156a.22.22 0 0 1 .157-.062h4.921q.094.002.157.062.06.064.062.156v.547a.22.22 0 0 1-.062.157.2.2 0 0 1-.157.062ZM65.444 22.574a.19.19 0 0 1-.172-.094.22.22 0 0 1-.03-.203l.14-.375q0-.013.015-.031v-6.797a.04.04 0 0 1-.015-.031l-.14-.39q-.018-.015-.017-.063 0-.094.063-.157a.22.22 0 0 1 .156-.062H66.6a.27.27 0 0 1 .188.078q.06.11.016.203l-.047.125q.263.582.422.875.138.316.218.469a1 1 0 0 0 .094.203q.03.066.063.125l.093.188q.062.127.203.437.14.3.391.828.246.55.656 1.422.03.047.078.047.094 0 .094-.094v-7c0-.02-.008-.039-.015-.062l-.125-.375q-.017-.013-.016-.078 0-.077.062-.141a.22.22 0 0 1 .157-.063h1.156q.106.001.172.079.059.11.031.203l-.14.375v.047l-.016.015v9.563q0 .018.015.03v.032l.141.375v.078a.25.25 0 0 1-.047.157.2.2 0 0 1-.156.062h-1.156a.19.19 0 0 1-.172-.094.22.22 0 0 1-.031-.203l.046-.11-2.14-4.546a.11.11 0 0 0-.094-.047c-.055 0-.078.031-.078.094v4.172c0 .03.004.054.016.062l.125.375c.007.024.015.043.015.063a.24.24 0 0 1-.062.172.2.2 0 0 1-.157.062Zm0 0"/></svg>