<svg xmlns="http://www.w3.org/2000/svg" xmlns:xlink="http://www.w3.org/1999/xlink" width="100" zoomAndPan="magnify" viewBox="0 0 75 37.5" height="50" preserveAspectRatio="xMidYMid meet" version="1.0"><defs><g/></defs><g fill="#42961e" fill-opacity="1"><g transform="translate(4.194079, 22.574013)"><g><path d="M 0.796875 -0.015625 C 0.722656 -0.0234375 0.675781 -0.0546875 0.65625 -0.109375 C 0.632812 -0.160156 0.628906 -0.222656 0.640625 -0.296875 L 0.78125 -0.671875 C 0.78125 -0.679688 0.785156 -0.691406 0.796875 -0.703125 C 0.796875 -0.710938 0.796875 -0.722656 0.796875 -0.734375 L 0.796875 -10.296875 C 0.796875 -10.296875 0.796875 -10.300781 0.796875 -10.3125 C 0.785156 -10.320312 0.78125 -10.335938 0.78125 -10.359375 L 0.640625 -10.734375 C 0.628906 -10.742188 0.625 -10.769531 0.625 -10.8125 C 0.625 -10.863281 0.644531 -10.910156 0.6875 -10.953125 C 0.726562 -10.992188 0.78125 -11.015625 0.84375 -11.015625 L 2 -11.015625 C 2.070312 -11.015625 2.132812 -10.988281 2.1875 -10.9375 C 2.226562 -10.863281 2.234375 -10.796875 2.203125 -10.734375 L 2.078125 -10.359375 C 2.066406 -10.335938 2.0625 -10.316406 2.0625 -10.296875 L 2.0625 -1.484375 C 2.0625 -1.421875 2.082031 -1.367188 2.125 -1.328125 C 2.15625 -1.285156 2.203125 -1.265625 2.265625 -1.265625 L 4.640625 -1.265625 C 4.671875 -1.265625 4.691406 -1.269531 4.703125 -1.28125 L 5.09375 -1.40625 C 5.113281 -1.414062 5.140625 -1.421875 5.171875 -1.421875 C 5.304688 -1.421875 5.375 -1.351562 5.375 -1.21875 L 5.375 -0.21875 C 5.375 -0.15625 5.351562 -0.101562 5.3125 -0.0625 C 5.269531 -0.0195312 5.21875 0 5.15625 0 L 0.796875 0 Z M 0.796875 -0.015625 "/></g></g></g><g fill="#42961e" fill-opacity="1"><g transform="translate(9.947423, 22.574013)"><g><path d="M 0.84375 0 C 0.769531 0 0.710938 -0.03125 0.671875 -0.09375 C 0.628906 -0.15625 0.617188 -0.222656 0.640625 -0.296875 L 0.78125 -0.671875 C 0.78125 -0.679688 0.785156 -0.691406 0.796875 -0.703125 C 0.796875 -0.710938 0.796875 -0.722656 0.796875 -0.734375 L 0.796875 -7.46875 C 0.796875 -7.476562 0.796875 -7.488281 0.796875 -7.5 C 0.785156 -7.507812 0.78125 -7.519531 0.78125 -7.53125 L 0.640625 -7.921875 C 0.628906 -7.929688 0.625 -7.953125 0.625 -7.984375 C 0.625 -8.046875 0.644531 -8.097656 0.6875 -8.140625 C 0.726562 -8.179688 0.78125 -8.203125 0.84375 -8.203125 L 2 -8.203125 C 2.070312 -8.203125 2.132812 -8.175781 2.1875 -8.125 C 2.226562 -8.050781 2.234375 -7.984375 2.203125 -7.921875 L 2.078125 -7.53125 C 2.066406 -7.519531 2.0625 -7.5 2.0625 -7.46875 L 2.0625 -0.734375 C 2.0625 -0.703125 2.066406 -0.679688 2.078125 -0.671875 L 2.203125 -0.296875 C 2.210938 -0.273438 2.21875 -0.253906 2.21875 -0.234375 C 2.21875 -0.160156 2.195312 -0.101562 2.15625 -0.0625 C 2.113281 -0.0195312 2.0625 0 2 0 Z M 0.84375 0 "/></g></g></g><g fill="#42961e" fill-opacity="1"><g transform="translate(12.798853, 22.574013)"><g><path d="M 1.984375 0 C 1.910156 0 1.851562 -0.03125 1.8125 -0.09375 C 1.769531 -0.15625 1.757812 -0.222656 1.78125 -0.296875 L 1.921875 -0.671875 C 1.929688 -0.679688 1.9375 -0.703125 1.9375 -0.734375 L 1.9375 -9.234375 C 1.9375 -9.359375 1.878906 -9.429688 1.765625 -9.453125 C 1.328125 -9.546875 0.898438 -9.675781 0.484375 -9.84375 C 0.0546875 -10.007812 -0.359375 -10.175781 -0.765625 -10.34375 C -1.179688 -10.5 -1.585938 -10.632812 -1.984375 -10.75 C -2.390625 -10.875 -2.785156 -10.9375 -3.171875 -10.9375 C -3.523438 -10.9375 -3.859375 -10.875 -4.171875 -10.75 C -4.429688 -10.664062 -4.628906 -10.566406 -4.765625 -10.453125 C -4.898438 -10.347656 -4.992188 -10.238281 -5.046875 -10.125 C -5.117188 -10.019531 -5.160156 -9.921875 -5.171875 -9.828125 C -5.191406 -9.734375 -5.207031 -9.660156 -5.21875 -9.609375 C -5.226562 -9.492188 -5.289062 -9.4375 -5.40625 -9.4375 C -5.445312 -9.4375 -5.484375 -9.453125 -5.515625 -9.484375 L -6.375 -10.015625 C -6.445312 -10.066406 -6.484375 -10.128906 -6.484375 -10.203125 C -6.484375 -10.234375 -6.46875 -10.269531 -6.4375 -10.3125 C -6.363281 -10.425781 -6.28125 -10.554688 -6.1875 -10.703125 C -6.09375 -10.847656 -5.976562 -10.992188 -5.84375 -11.140625 C -5.707031 -11.285156 -5.539062 -11.429688 -5.34375 -11.578125 C -5.144531 -11.710938 -4.898438 -11.832031 -4.609375 -11.9375 C -4.140625 -12.113281 -3.664062 -12.203125 -3.1875 -12.203125 C -2.632812 -12.203125 -2.097656 -12.113281 -1.578125 -11.9375 C -1.054688 -11.769531 -0.539062 -11.59375 -0.03125 -11.40625 C 0.457031 -11.195312 0.945312 -11.007812 1.4375 -10.84375 C 1.914062 -10.675781 2.390625 -10.59375 2.859375 -10.59375 C 3.117188 -10.59375 3.382812 -10.628906 3.65625 -10.703125 C 3.914062 -10.773438 4.175781 -10.898438 4.4375 -11.078125 C 4.675781 -11.234375 4.859375 -11.382812 4.984375 -11.53125 C 5.097656 -11.664062 5.1875 -11.789062 5.25 -11.90625 C 5.3125 -12.007812 5.347656 -12.109375 5.359375 -12.203125 C 5.359375 -12.285156 5.367188 -12.347656 5.390625 -12.390625 C 5.410156 -12.503906 5.476562 -12.5625 5.59375 -12.5625 C 5.632812 -12.5625 5.664062 -12.550781 5.6875 -12.53125 L 6.546875 -12 C 6.617188 -11.957031 6.65625 -11.898438 6.65625 -11.828125 C 6.65625 -11.773438 6.644531 -11.738281 6.625 -11.71875 L 6.359375 -11.28125 C 6.046875 -10.769531 5.632812 -10.347656 5.125 -10.015625 C 4.613281 -9.671875 4.035156 -9.457031 3.390625 -9.375 C 3.335938 -9.363281 3.289062 -9.335938 3.25 -9.296875 C 3.207031 -9.253906 3.1875 -9.207031 3.1875 -9.15625 L 3.1875 -0.734375 C 3.1875 -0.722656 3.191406 -0.710938 3.203125 -0.703125 C 3.203125 -0.691406 3.203125 -0.679688 3.203125 -0.671875 L 3.34375 -0.296875 C 3.351562 -0.273438 3.359375 -0.25 3.359375 -0.21875 C 3.359375 -0.15625 3.34375 -0.101562 3.3125 -0.0625 C 3.269531 -0.0195312 3.210938 0 3.140625 0 Z M 1.984375 0 "/></g></g></g><g fill="#42961e" fill-opacity="1"><g transform="translate(17.933956, 22.574013)"><g><path d="M 1.984375 0 C 1.910156 0 1.851562 -0.03125 1.8125 -0.09375 C 1.769531 -0.15625 1.757812 -0.222656 1.78125 -0.296875 L 1.921875 -0.671875 C 1.929688 -0.679688 1.9375 -0.703125 1.9375 -0.734375 L 1.9375 -9.234375 C 1.9375 -9.359375 1.878906 -9.429688 1.765625 -9.453125 C 1.328125 -9.546875 0.898438 -9.675781 0.484375 -9.84375 C 0.0546875 -10.007812 -0.359375 -10.175781 -0.765625 -10.34375 C -1.179688 -10.5 -1.585938 -10.632812 -1.984375 -10.75 C -2.390625 -10.875 -2.785156 -10.9375 -3.171875 -10.9375 C -3.523438 -10.9375 -3.859375 -10.875 -4.171875 -10.75 C -4.429688 -10.664062 -4.628906 -10.566406 -4.765625 -10.453125 C -4.898438 -10.347656 -4.992188 -10.238281 -5.046875 -10.125 C -5.117188 -10.019531 -5.160156 -9.921875 -5.171875 -9.828125 C -5.191406 -9.734375 -5.207031 -9.660156 -5.21875 -9.609375 C -5.226562 -9.492188 -5.289062 -9.4375 -5.40625 -9.4375 C -5.445312 -9.4375 -5.484375 -9.453125 -5.515625 -9.484375 L -6.375 -10.015625 C -6.445312 -10.066406 -6.484375 -10.128906 -6.484375 -10.203125 C -6.484375 -10.234375 -6.46875 -10.269531 -6.4375 -10.3125 C -6.363281 -10.425781 -6.28125 -10.554688 -6.1875 -10.703125 C -6.09375 -10.847656 -5.976562 -10.992188 -5.84375 -11.140625 C -5.707031 -11.285156 -5.539062 -11.429688 -5.34375 -11.578125 C -5.144531 -11.710938 -4.898438 -11.832031 -4.609375 -11.9375 C -4.140625 -12.113281 -3.664062 -12.203125 -3.1875 -12.203125 C -2.632812 -12.203125 -2.097656 -12.113281 -1.578125 -11.9375 C -1.054688 -11.769531 -0.539062 -11.59375 -0.03125 -11.40625 C 0.457031 -11.195312 0.945312 -11.007812 1.4375 -10.84375 C 1.914062 -10.675781 2.390625 -10.59375 2.859375 -10.59375 C 3.117188 -10.59375 3.382812 -10.628906 3.65625 -10.703125 C 3.914062 -10.773438 4.175781 -10.898438 4.4375 -11.078125 C 4.675781 -11.234375 4.859375 -11.382812 4.984375 -11.53125 C 5.097656 -11.664062 5.1875 -11.789062 5.25 -11.90625 C 5.3125 -12.007812 5.347656 -12.109375 5.359375 -12.203125 C 5.359375 -12.285156 5.367188 -12.347656 5.390625 -12.390625 C 5.410156 -12.503906 5.476562 -12.5625 5.59375 -12.5625 C 5.632812 -12.5625 5.664062 -12.550781 5.6875 -12.53125 L 6.546875 -12 C 6.617188 -11.957031 6.65625 -11.898438 6.65625 -11.828125 C 6.65625 -11.773438 6.644531 -11.738281 6.625 -11.71875 L 6.359375 -11.28125 C 6.046875 -10.769531 5.632812 -10.347656 5.125 -10.015625 C 4.613281 -9.671875 4.035156 -9.457031 3.390625 -9.375 C 3.335938 -9.363281 3.289062 -9.335938 3.25 -9.296875 C 3.207031 -9.253906 3.1875 -9.207031 3.1875 -9.15625 L 3.1875 -0.734375 C 3.1875 -0.722656 3.191406 -0.710938 3.203125 -0.703125 C 3.203125 -0.691406 3.203125 -0.679688 3.203125 -0.671875 L 3.34375 -0.296875 C 3.351562 -0.273438 3.359375 -0.25 3.359375 -0.21875 C 3.359375 -0.15625 3.34375 -0.101562 3.3125 -0.0625 C 3.269531 -0.0195312 3.210938 0 3.140625 0 Z M 1.984375 0 "/></g></g></g><g fill="#42961e" fill-opacity="1"><g transform="translate(23.06906, 22.574013)"><g><path d="M 0.796875 -0.015625 C 0.722656 -0.0234375 0.675781 -0.0546875 0.65625 -0.109375 C 0.632812 -0.160156 0.628906 -0.222656 0.640625 -0.296875 L 0.78125 -0.671875 C 0.78125 -0.679688 0.785156 -0.691406 0.796875 -0.703125 C 0.796875 -0.710938 0.796875 -0.722656 0.796875 -0.734375 L 0.796875 -7.46875 C 0.796875 -7.476562 0.796875 -7.488281 0.796875 -7.5 C 0.785156 -7.507812 0.78125 -7.519531 0.78125 -7.53125 L 0.640625 -7.921875 C 0.628906 -7.929688 0.625 -7.953125 0.625 -7.984375 C 0.625 -8.046875 0.644531 -8.097656 0.6875 -8.140625 C 0.726562 -8.179688 0.78125 -8.203125 0.84375 -8.203125 L 2 -8.203125 C 2.070312 -8.203125 2.132812 -8.175781 2.1875 -8.125 C 2.226562 -8.050781 2.234375 -7.984375 2.203125 -7.921875 L 2.078125 -7.53125 C 2.066406 -7.519531 2.0625 -7.5 2.0625 -7.46875 L 2.0625 -1.484375 C 2.0625 -1.421875 2.082031 -1.367188 2.125 -1.328125 C 2.15625 -1.285156 2.203125 -1.265625 2.265625 -1.265625 L 4.25 -1.265625 C 4.289062 -1.265625 4.316406 -1.269531 4.328125 -1.28125 L 4.71875 -1.40625 C 4.738281 -1.414062 4.765625 -1.421875 4.796875 -1.421875 C 4.929688 -1.421875 5 -1.351562 5 -1.21875 L 5 -0.21875 C 5 -0.15625 4.976562 -0.101562 4.9375 -0.0625 C 4.894531 -0.0195312 4.84375 0 4.78125 0 L 0.796875 0 Z M 0.796875 -0.015625 "/></g></g></g><g fill="#42961e" fill-opacity="1"><g transform="translate(28.44389, 22.574013)"><g><path d="M 2.984375 -1.75 L 1.484375 -1.75 C 1.273438 -1.75 1.109375 -1.75 0.984375 -1.75 L 0.796875 -1.75 C 0.722656 -1.769531 0.675781 -1.804688 0.65625 -1.859375 C 0.632812 -1.910156 0.628906 -1.96875 0.640625 -2.03125 L 0.78125 -2.40625 C 0.78125 -2.425781 0.785156 -2.441406 0.796875 -2.453125 C 0.796875 -2.460938 0.796875 -2.46875 0.796875 -2.46875 L 0.796875 -7.46875 C 0.796875 -7.476562 0.796875 -7.488281 0.796875 -7.5 C 0.785156 -7.507812 0.78125 -7.519531 0.78125 -7.53125 L 0.640625 -7.921875 C 0.628906 -7.929688 0.625 -7.953125 0.625 -7.984375 C 0.625 -8.097656 0.679688 -8.164062 0.796875 -8.1875 L 0.796875 -8.203125 L 5.15625 -8.203125 C 5.21875 -8.203125 5.269531 -8.179688 5.3125 -8.140625 C 5.351562 -8.097656 5.375 -8.046875 5.375 -7.984375 L 5.375 -6.984375 C 5.375 -6.910156 5.347656 -6.851562 5.296875 -6.8125 C 5.234375 -6.769531 5.164062 -6.765625 5.09375 -6.796875 L 4.703125 -6.9375 C 4.691406 -6.9375 4.671875 -6.9375 4.640625 -6.9375 L 2.265625 -6.9375 C 2.203125 -6.9375 2.15625 -6.914062 2.125 -6.875 C 2.082031 -6.832031 2.0625 -6.785156 2.0625 -6.734375 L 2.0625 -6.3125 C 2.0625 -6.257812 2.082031 -6.21875 2.125 -6.1875 C 2.15625 -6.144531 2.195312 -6.125 2.25 -6.125 L 3.796875 -6.125 C 3.828125 -6.125 3.851562 -6.128906 3.875 -6.140625 L 4.25 -6.28125 C 4.269531 -6.28125 4.296875 -6.28125 4.328125 -6.28125 C 4.460938 -6.28125 4.53125 -6.210938 4.53125 -6.078125 L 4.53125 -4.90625 C 4.53125 -4.832031 4.5 -4.773438 4.4375 -4.734375 C 4.382812 -4.691406 4.320312 -4.679688 4.25 -4.703125 L 3.875 -4.84375 C 3.851562 -4.851562 3.828125 -4.859375 3.796875 -4.859375 L 2.25 -4.859375 C 2.195312 -4.859375 2.15625 -4.84375 2.125 -4.8125 C 2.082031 -4.769531 2.0625 -4.722656 2.0625 -4.671875 L 2.0625 -3.21875 C 2.0625 -3.15625 2.082031 -3.101562 2.125 -3.0625 C 2.15625 -3.019531 2.203125 -3 2.265625 -3 L 4.640625 -3 C 4.671875 -3 4.691406 -3.003906 4.703125 -3.015625 L 5.09375 -3.15625 C 5.113281 -3.164062 5.140625 -3.171875 5.171875 -3.171875 C 5.304688 -3.171875 5.375 -3.101562 5.375 -2.96875 L 5.375 -1.953125 C 5.375 -1.898438 5.351562 -1.851562 5.3125 -1.8125 C 5.269531 -1.769531 5.21875 -1.75 5.15625 -1.75 Z M 0.84375 0 C 0.78125 0 0.726562 -0.0195312 0.6875 -0.0625 C 0.644531 -0.101562 0.625 -0.15625 0.625 -0.21875 L 0.625 -0.765625 C 0.625 -0.828125 0.644531 -0.878906 0.6875 -0.921875 C 0.726562 -0.960938 0.78125 -0.984375 0.84375 -0.984375 L 5.15625 -0.984375 C 5.21875 -0.984375 5.269531 -0.960938 5.3125 -0.921875 C 5.351562 -0.878906 5.375 -0.828125 5.375 -0.765625 L 5.375 -0.21875 C 5.375 -0.15625 5.351562 -0.101562 5.3125 -0.0625 C 5.269531 -0.0195312 5.21875 0 5.15625 0 Z M 0.84375 0 "/></g></g></g><g fill="#ffde59" fill-opacity="1"><g transform="translate(34.45852, 22.574013)"><g/></g></g><g fill="#ffde59" fill-opacity="1"><g transform="translate(38.243608, 22.574013)"><g><path d="M 0.796875 -0.015625 C 0.722656 -0.0234375 0.675781 -0.0546875 0.65625 -0.109375 C 0.632812 -0.160156 0.628906 -0.222656 0.640625 -0.296875 L 0.78125 -0.671875 C 0.78125 -0.679688 0.785156 -0.691406 0.796875 -0.703125 C 0.796875 -0.710938 0.796875 -0.722656 0.796875 -0.734375 L 0.796875 -10.296875 C 0.796875 -10.296875 0.796875 -10.300781 0.796875 -10.3125 C 0.785156 -10.320312 0.78125 -10.335938 0.78125 -10.359375 L 0.640625 -10.734375 C 0.628906 -10.742188 0.625 -10.769531 0.625 -10.8125 C 0.625 -10.863281 0.644531 -10.910156 0.6875 -10.953125 C 0.726562 -10.992188 0.78125 -11.015625 0.84375 -11.015625 L 2 -11.015625 C 2.070312 -11.015625 2.132812 -10.988281 2.1875 -10.9375 C 2.226562 -10.863281 2.234375 -10.796875 2.203125 -10.734375 L 2.078125 -10.359375 C 2.066406 -10.335938 2.0625 -10.316406 2.0625 -10.296875 L 2.0625 -1.484375 C 2.0625 -1.421875 2.082031 -1.367188 2.125 -1.328125 C 2.15625 -1.285156 2.203125 -1.265625 2.265625 -1.265625 L 4.640625 -1.265625 C 4.671875 -1.265625 4.691406 -1.269531 4.703125 -1.28125 L 5.09375 -1.40625 C 5.113281 -1.414062 5.140625 -1.421875 5.171875 -1.421875 C 5.304688 -1.421875 5.375 -1.351562 5.375 -1.21875 L 5.375 -0.21875 C 5.375 -0.15625 5.351562 -0.101562 5.3125 -0.0625 C 5.269531 -0.0195312 5.21875 0 5.15625 0 L 0.796875 0 Z M 0.796875 -0.015625 "/></g></g></g><g fill="#ffde59" fill-opacity="1"><g transform="translate(43.996952, 22.574013)"><g><path d="M 2.984375 -1.75 L 1.484375 -1.75 C 1.273438 -1.75 1.109375 -1.75 0.984375 -1.75 L 0.796875 -1.75 C 0.722656 -1.769531 0.675781 -1.804688 0.65625 -1.859375 C 0.632812 -1.910156 0.628906 -1.96875 0.640625 -2.03125 L 0.78125 -2.40625 C 0.78125 -2.425781 0.785156 -2.441406 0.796875 -2.453125 C 0.796875 -2.460938 0.796875 -2.46875 0.796875 -2.46875 L 0.796875 -7.46875 C 0.796875 -7.476562 0.796875 -7.488281 0.796875 -7.5 C 0.785156 -7.507812 0.78125 -7.519531 0.78125 -7.53125 L 0.640625 -7.921875 C 0.628906 -7.929688 0.625 -7.953125 0.625 -7.984375 C 0.625 -8.097656 0.679688 -8.164062 0.796875 -8.1875 L 0.796875 -8.203125 L 5.15625 -8.203125 C 5.21875 -8.203125 5.269531 -8.179688 5.3125 -8.140625 C 5.351562 -8.097656 5.375 -8.046875 5.375 -7.984375 L 5.375 -6.984375 C 5.375 -6.910156 5.347656 -6.851562 5.296875 -6.8125 C 5.234375 -6.769531 5.164062 -6.765625 5.09375 -6.796875 L 4.703125 -6.9375 C 4.691406 -6.9375 4.671875 -6.9375 4.640625 -6.9375 L 2.265625 -6.9375 C 2.203125 -6.9375 2.15625 -6.914062 2.125 -6.875 C 2.082031 -6.832031 2.0625 -6.785156 2.0625 -6.734375 L 2.0625 -6.3125 C 2.0625 -6.257812 2.082031 -6.21875 2.125 -6.1875 C 2.15625 -6.144531 2.195312 -6.125 2.25 -6.125 L 3.796875 -6.125 C 3.828125 -6.125 3.851562 -6.128906 3.875 -6.140625 L 4.25 -6.28125 C 4.269531 -6.28125 4.296875 -6.28125 4.328125 -6.28125 C 4.460938 -6.28125 4.53125 -6.210938 4.53125 -6.078125 L 4.53125 -4.90625 C 4.53125 -4.832031 4.5 -4.773438 4.4375 -4.734375 C 4.382812 -4.691406 4.320312 -4.679688 4.25 -4.703125 L 3.875 -4.84375 C 3.851562 -4.851562 3.828125 -4.859375 3.796875 -4.859375 L 2.25 -4.859375 C 2.195312 -4.859375 2.15625 -4.84375 2.125 -4.8125 C 2.082031 -4.769531 2.0625 -4.722656 2.0625 -4.671875 L 2.0625 -3.21875 C 2.0625 -3.15625 2.082031 -3.101562 2.125 -3.0625 C 2.15625 -3.019531 2.203125 -3 2.265625 -3 L 4.640625 -3 C 4.671875 -3 4.691406 -3.003906 4.703125 -3.015625 L 5.09375 -3.15625 C 5.113281 -3.164062 5.140625 -3.171875 5.171875 -3.171875 C 5.304688 -3.171875 5.375 -3.101562 5.375 -2.96875 L 5.375 -1.953125 C 5.375 -1.898438 5.351562 -1.851562 5.3125 -1.8125 C 5.269531 -1.769531 5.21875 -1.75 5.15625 -1.75 Z M 0.84375 0 C 0.78125 0 0.726562 -0.0195312 0.6875 -0.0625 C 0.644531 -0.101562 0.625 -0.15625 0.625 -0.21875 L 0.625 -0.765625 C 0.625 -0.828125 0.644531 -0.878906 0.6875 -0.921875 C 0.726562 -0.960938 0.78125 -0.984375 0.84375 -0.984375 L 5.15625 -0.984375 C 5.21875 -0.984375 5.269531 -0.960938 5.3125 -0.921875 C 5.351562 -0.878906 5.375 -0.828125 5.375 -0.765625 L 5.375 -0.21875 C 5.375 -0.15625 5.351562 -0.101562 5.3125 -0.0625 C 5.269531 -0.0195312 5.21875 0 5.15625 0 Z M 0.84375 0 "/></g></g></g><g fill="#ffde59" fill-opacity="1"><g transform="translate(50.002627, 22.574013)"><g><path d="M 0.84375 0 C 0.769531 0 0.710938 -0.03125 0.671875 -0.09375 C 0.628906 -0.15625 0.617188 -0.222656 0.640625 -0.296875 L 0.78125 -0.671875 C 0.78125 -0.679688 0.785156 -0.691406 0.796875 -0.703125 C 0.796875 -0.710938 0.796875 -0.722656 0.796875 -0.734375 L 0.796875 -7.46875 C 0.796875 -7.476562 0.796875 -7.488281 0.796875 -7.5 C 0.785156 -7.507812 0.78125 -7.519531 0.78125 -7.53125 L 0.640625 -7.921875 C 0.628906 -7.929688 0.625 -7.953125 0.625 -7.984375 C 0.625 -8.046875 0.644531 -8.097656 0.6875 -8.140625 C 0.726562 -8.179688 0.78125 -8.203125 0.84375 -8.203125 L 2 -8.203125 C 2.070312 -8.203125 2.132812 -8.175781 2.1875 -8.125 C 2.226562 -8.050781 2.234375 -7.984375 2.203125 -7.921875 L 2.15625 -7.796875 L 4.171875 -3.515625 C 4.171875 -3.484375 4.191406 -3.46875 4.234375 -3.46875 C 4.285156 -3.46875 4.316406 -3.484375 4.328125 -3.515625 L 6.328125 -7.796875 L 6.28125 -7.921875 C 6.28125 -7.929688 6.28125 -7.953125 6.28125 -7.984375 C 6.28125 -8.046875 6.300781 -8.097656 6.34375 -8.140625 C 6.375 -8.179688 6.421875 -8.203125 6.484375 -8.203125 L 7.65625 -8.203125 C 7.71875 -8.203125 7.773438 -8.175781 7.828125 -8.125 C 7.867188 -8.050781 7.878906 -7.984375 7.859375 -7.921875 L 7.71875 -7.53125 C 7.707031 -7.519531 7.703125 -7.5 7.703125 -7.46875 L 7.703125 -0.734375 C 7.703125 -0.703125 7.707031 -0.679688 7.71875 -0.671875 L 7.859375 -0.296875 C 7.859375 -0.273438 7.859375 -0.253906 7.859375 -0.234375 C 7.859375 -0.160156 7.835938 -0.101562 7.796875 -0.0625 C 7.753906 -0.0195312 7.707031 0 7.65625 0 L 6.484375 0 C 6.410156 0 6.351562 -0.03125 6.3125 -0.09375 C 6.269531 -0.15625 6.257812 -0.222656 6.28125 -0.296875 L 6.421875 -0.671875 C 6.429688 -0.679688 6.4375 -0.703125 6.4375 -0.734375 L 6.4375 -4.90625 C 6.4375 -4.957031 6.410156 -4.988281 6.359375 -5 C 6.304688 -5.007812 6.273438 -4.992188 6.265625 -4.953125 L 4.921875 -2.09375 C 4.898438 -2.03125 4.898438 -1.976562 4.921875 -1.9375 L 5.03125 -1.640625 C 5.03125 -1.617188 5.03125 -1.59375 5.03125 -1.5625 C 5.03125 -1.507812 5.015625 -1.457031 4.984375 -1.40625 C 4.941406 -1.363281 4.890625 -1.34375 4.828125 -1.34375 L 3.671875 -1.34375 C 3.597656 -1.34375 3.539062 -1.378906 3.5 -1.453125 C 3.457031 -1.515625 3.445312 -1.578125 3.46875 -1.640625 L 3.578125 -1.9375 C 3.585938 -1.988281 3.582031 -2.039062 3.5625 -2.09375 L 2.234375 -4.953125 C 2.210938 -4.984375 2.179688 -5 2.140625 -5 C 2.085938 -5 2.0625 -4.96875 2.0625 -4.90625 L 2.0625 -0.734375 C 2.0625 -0.703125 2.066406 -0.679688 2.078125 -0.671875 L 2.203125 -0.296875 C 2.210938 -0.273438 2.21875 -0.253906 2.21875 -0.234375 C 2.21875 -0.160156 2.195312 -0.101562 2.15625 -0.0625 C 2.113281 -0.0195312 2.0625 0 2 0 Z M 0.84375 0 "/></g></g></g><g fill="#ffde59" fill-opacity="1"><g transform="translate(58.493845, 22.574013)"><g><path d="M 3.0625 -1.75 C 2.675781 -1.75 2.320312 -1.832031 2 -2 C 1.675781 -2.164062 1.394531 -2.394531 1.15625 -2.6875 C 0.914062 -2.976562 0.726562 -3.320312 0.59375 -3.71875 C 0.445312 -4.113281 0.375 -4.53125 0.375 -4.96875 C 0.375 -5.414062 0.445312 -5.835938 0.59375 -6.234375 C 0.726562 -6.617188 0.914062 -6.960938 1.15625 -7.265625 C 1.394531 -7.554688 1.675781 -7.785156 2 -7.953125 C 2.332031 -8.117188 2.6875 -8.203125 3.0625 -8.203125 C 3.4375 -8.203125 3.785156 -8.117188 4.109375 -7.953125 C 4.429688 -7.773438 4.71875 -7.546875 4.96875 -7.265625 C 5.195312 -6.960938 5.382812 -6.613281 5.53125 -6.21875 C 5.664062 -5.820312 5.734375 -5.40625 5.734375 -4.96875 C 5.734375 -4.53125 5.664062 -4.113281 5.53125 -3.71875 C 5.382812 -3.320312 5.195312 -2.976562 4.96875 -2.6875 C 4.71875 -2.394531 4.429688 -2.164062 4.109375 -2 C 3.773438 -1.832031 3.425781 -1.75 3.0625 -1.75 Z M 3.0625 -3 C 3.25 -3 3.429688 -3.054688 3.609375 -3.171875 C 3.773438 -3.273438 3.921875 -3.410156 4.046875 -3.578125 C 4.171875 -3.753906 4.273438 -3.96875 4.359375 -4.21875 C 4.429688 -4.445312 4.46875 -4.695312 4.46875 -4.96875 C 4.46875 -5.238281 4.429688 -5.5 4.359375 -5.75 C 4.273438 -5.976562 4.171875 -6.179688 4.046875 -6.359375 C 3.910156 -6.535156 3.757812 -6.679688 3.59375 -6.796875 C 3.414062 -6.890625 3.238281 -6.9375 3.0625 -6.9375 C 2.863281 -6.9375 2.679688 -6.890625 2.515625 -6.796875 C 2.347656 -6.679688 2.203125 -6.535156 2.078125 -6.359375 C 1.941406 -6.179688 1.832031 -5.976562 1.75 -5.75 C 1.675781 -5.5 1.640625 -5.238281 1.640625 -4.96875 C 1.640625 -4.695312 1.675781 -4.445312 1.75 -4.21875 C 1.832031 -3.96875 1.941406 -3.753906 2.078125 -3.578125 C 2.203125 -3.410156 2.347656 -3.273438 2.515625 -3.171875 C 2.679688 -3.054688 2.863281 -3 3.0625 -3 Z M 0.59375 0 C 0.53125 0 0.476562 -0.0195312 0.4375 -0.0625 C 0.394531 -0.101562 0.375 -0.15625 0.375 -0.21875 L 0.375 -0.765625 C 0.375 -0.828125 0.394531 -0.878906 0.4375 -0.921875 C 0.476562 -0.960938 0.53125 -0.984375 0.59375 -0.984375 L 5.515625 -0.984375 C 5.578125 -0.984375 5.628906 -0.960938 5.671875 -0.921875 C 5.710938 -0.878906 5.734375 -0.828125 5.734375 -0.765625 L 5.734375 -0.21875 C 5.734375 -0.15625 5.710938 -0.101562 5.671875 -0.0625 C 5.628906 -0.0195312 5.578125 0 5.515625 0 Z M 0.59375 0 "/></g></g></g><g fill="#ffde59" fill-opacity="1"><g transform="translate(64.600461, 22.574013)"><g><path d="M 0.84375 0 C 0.769531 0 0.710938 -0.03125 0.671875 -0.09375 C 0.628906 -0.15625 0.617188 -0.222656 0.640625 -0.296875 L 0.78125 -0.671875 C 0.78125 -0.679688 0.785156 -0.691406 0.796875 -0.703125 C 0.796875 -0.710938 0.796875 -0.722656 0.796875 -0.734375 L 0.796875 -7.46875 C 0.796875 -7.476562 0.796875 -7.488281 0.796875 -7.5 C 0.785156 -7.507812 0.78125 -7.519531 0.78125 -7.53125 L 0.640625 -7.921875 C 0.628906 -7.929688 0.625 -7.953125 0.625 -7.984375 C 0.625 -8.046875 0.644531 -8.097656 0.6875 -8.140625 C 0.726562 -8.179688 0.78125 -8.203125 0.84375 -8.203125 L 2 -8.203125 C 2.070312 -8.203125 2.132812 -8.175781 2.1875 -8.125 C 2.226562 -8.050781 2.234375 -7.984375 2.203125 -7.921875 L 2.15625 -7.796875 C 2.332031 -7.410156 2.472656 -7.117188 2.578125 -6.921875 C 2.671875 -6.710938 2.742188 -6.554688 2.796875 -6.453125 C 2.835938 -6.347656 2.867188 -6.28125 2.890625 -6.25 C 2.910156 -6.207031 2.929688 -6.164062 2.953125 -6.125 L 3.046875 -5.9375 C 3.085938 -5.851562 3.15625 -5.707031 3.25 -5.5 C 3.34375 -5.300781 3.472656 -5.023438 3.640625 -4.671875 C 3.804688 -4.304688 4.023438 -3.832031 4.296875 -3.25 C 4.316406 -3.21875 4.34375 -3.203125 4.375 -3.203125 C 4.4375 -3.203125 4.46875 -3.234375 4.46875 -3.296875 L 4.46875 -10.296875 C 4.46875 -10.316406 4.460938 -10.335938 4.453125 -10.359375 L 4.328125 -10.734375 C 4.316406 -10.742188 4.3125 -10.769531 4.3125 -10.8125 C 4.3125 -10.863281 4.332031 -10.910156 4.375 -10.953125 C 4.414062 -10.992188 4.46875 -11.015625 4.53125 -11.015625 L 5.6875 -11.015625 C 5.757812 -11.015625 5.816406 -10.988281 5.859375 -10.9375 C 5.898438 -10.863281 5.910156 -10.796875 5.890625 -10.734375 L 5.75 -10.359375 C 5.75 -10.335938 5.75 -10.320312 5.75 -10.3125 C 5.738281 -10.300781 5.734375 -10.296875 5.734375 -10.296875 L 5.734375 -0.734375 C 5.734375 -0.722656 5.738281 -0.710938 5.75 -0.703125 C 5.75 -0.691406 5.75 -0.679688 5.75 -0.671875 L 5.890625 -0.296875 C 5.890625 -0.273438 5.890625 -0.25 5.890625 -0.21875 C 5.890625 -0.15625 5.875 -0.101562 5.84375 -0.0625 C 5.800781 -0.0195312 5.75 0 5.6875 0 L 4.53125 0 C 4.457031 0 4.398438 -0.03125 4.359375 -0.09375 C 4.316406 -0.15625 4.304688 -0.222656 4.328125 -0.296875 L 4.375 -0.40625 L 2.234375 -4.953125 C 2.210938 -4.984375 2.179688 -5 2.140625 -5 C 2.085938 -5 2.0625 -4.96875 2.0625 -4.90625 L 2.0625 -0.734375 C 2.0625 -0.703125 2.066406 -0.679688 2.078125 -0.671875 L 2.203125 -0.296875 C 2.210938 -0.273438 2.21875 -0.253906 2.21875 -0.234375 C 2.21875 -0.160156 2.195312 -0.101562 2.15625 -0.0625 C 2.113281 -0.0195312 2.0625 0 2 0 Z M 0.84375 0 "/></g></g></g></svg>