<svg xmlns="http://www.w3.org/2000/svg" width="500" height="500" version="1.0" viewBox="0 0 375 375"><defs><clipPath id="a"><path d="M74.41 94h231.75v281H74.41Zm0 0"/></clipPath><clipPath id="b"><path d="M53.957 136.379H326.68V266.3H53.957Zm0 0"/></clipPath></defs><path fill="#90bb3f" d="M149.203 79.46s2.254-25.468 5.758-31.038 10.523-21.805 17.344-26.707c3.207-2.34 32.043-15.113 42.004-17.152 0 0 29.25-4.45 29.316-3.614.066.832-6.016 25.18-6.016 25.18l-29.12 27.098-29.602 16.234Zm0 0"/><path fill="#6a903d" d="M156.05 69.844s22.716-29.563 25.364-30.578c2.645-1.016 20.8-13.047 20.8-13.047l24.65-10.45-29.934 17.368L175.7 49.12Zm0 0"/><path fill="#6a903d" d="m171.414 47.52 1.047-6.782 1.902-8.347-4.828 12.722-.074 8.762ZM191.14 35.273l4.098-15.03 3.621-6.473-2.246 11.074ZM175.285 49.04l14.906.675 12.63-2.895-15.169.293-6.66.617ZM198.46 31.406l19.177-.578 11.699-3.152-16.547.8Zm0 0"/><path fill="#90bb3f" d="M118.805 43.664h10.425s4.727 7.805 6.887 11.684c1.39 2.496 8.965 23.992 8.965 23.992l5.961-5.074 5.309.902-7.856 12.594 5.352 21.406-5.84 2.504-8.133-24.617-7.512-23.164-7.515-15.438Zm0 0"/><g clip-path="url(#a)"><path fill="#f0c642" d="M298.402 190.54c-.886-2.892-34.722-49.5-36.925-51.243-2.204-1.746-43.825-26.469-47.914-27.55-4.09-1.083-37.297-3.888-37.297-3.888s-5.602-5.976-6.016-6.414-8.582-5.812-10.012-6.293-12.312-.414-14.785 0c-1.203.196-9.601 7.414-9.937 7.977-.34.566-3.977 8.363-4.059 9.488-.078 1.008-2.348 8.875-2.348 8.875s-20.297 15.715-23.265 18.684-28.969 43.894-31.059 65.894c-.367 3.95 3.008 60.559 3.961 63.68s21.598 42.617 23.414 45.277c6.39 9.438 46.606 35.34 50.75 36.793 20.086 6.961 49.086 11.602 50.055 12.54.969.94 6.496 4.984 6.496 4.984s7.312 3.797 9.02 4.07c1.707.27 10.671 1.426 13.035 1.254 2.359-.172 9.71-5.164 10.793-6.05 1.082-.888 5.554-9.68 5.554-9.68s1.34-6.915 1.7-7.797c.585-1.426 20.62-16.88 21.632-17.961 1.016-1.082 23.305-31.16 26.313-40.274 3.004-9.11 8.672-50.625 8.672-62.406-.035-3.465-6.89-37.074-7.778-39.96m0 0"/></g><path fill="#e6a424" d="m279.465 218.102 3.008 22.957-.754 22.992-6.266 26.57-10.293 18.535-13.41 17.66s17.004-14.18 19.363-16.609c2.36-2.426 12.782-24.637 12.782-24.637l4.035-37.136Zm0 0"/><path fill="#e6a423" d="M114.195 165.988c.09-.422 1.098-2.812 1.098-2.812l1.129-4.707s-1.55-2.594-2.422-3.008c-1.125-.488-4.848 2.16-4.848 2.16l-3.007 4.277s-.805 5.692.234 6.196c1.55.64 3.164.906 4.84.789 0 0 2.828-2.18 2.976-2.895M123.531 154.836c.844.988 3.633.46 3.633.46s2.887-3.151 2.809-4.128c0-.473.097-2.91-.832-4.555-.512-.902-2.528-.836-2.528-.836s-2.62 1.067-3.508 2.961c-.886 1.895-.859 2.348-.859 2.348s.453 2.773 1.285 3.75M124.66 162.395c-1.164-.754-3.933.75-3.933.75s-2.094 4.218-1.727 5.218c.172.48.75 3.055 2.21 4.469.806.75 2.895.035 2.895.035s2.426-1.969 2.801-4.23c.38-2.266.211-2.73.211-2.73s-1.293-2.762-2.457-3.512M101.559 196.11c-1.504-2.024-4.989.878-4.989.878s-2.062 4.09-1.918 5.196c.067.527 1 3.48 2.098 4.242 1.098.758 4.117-.754 5.156-1.324.797-.422 1.067-4.352 1.067-4.352Zm0 0"/><g clip-path="url(#b)"><path fill="#fff" d="M53.957 136.379h272.531V266.3H53.957Zm0 0"/></g><path fill="#ffd941" d="M64.855 261.012c-3.804.375-5.386-1.273-4.75-4.953q2.092-11.027 3.985-26.438 1.906-15.405 1.906-35.75c0-8.875-.352-17.367-1.047-25.484q-1.05-12.169-2.469-21.672c-.949-6.344-1.742-11.289-2.375-14.844q-.955-5.887 4.75-4.937 2.673.376 6 .672c2.22.187 4.91.281 8.078.281q5.124 0 8.547-.281a67 67 0 0 0 6.47-.86q5.511-.575 4.562 4.938-2.472 12.939-4.094 27.672-1.61 14.735-1.61 34.515 0 13.688 1.047 22.922 1.044 9.223 1.813 14.156 2.84.205 7.984.297 5.138.095 11.688-1.703 6.561-1.81 13.422-6.953 2.466-1.715 4.359-.86 1.906.863 1.719 3.516-.375 7.8-.47 15.891-.093 8.08.47 15.11c.125 3.554-1.524 5.14-4.938 4.765-4.824-.633-9.93-1.047-15.312-1.234a487 487 0 0 0-17.594-.297c-5.574 0-11.215.133-16.922.39q-8.564.375-15.219 1.141m0 0"/><path fill="#ffd941" d="M122.443 210.45a34 34 0 0 0-3.109-.421q-1.564-.14-3.937-.14-2.19 0-3.766.14a57 57 0 0 0-2.89.328c-1.907.32-2.7-.5-2.376-2.469q.47-2.67 1.032-7.422c.382-3.176.734-6.789 1.046-10.844.32-4.062.485-8.312.485-12.75q-.002-6.656-.485-12.75a253 253 0 0 0-1.046-10.843q-.563-4.763-1.032-7.422-.484-2.952 2.375-2.469 1.325.187 2.891.328 1.575.14 3.766.14 2.373 0 3.937-.14a30 30 0 0 0 3.11-.437q2.842-.282 2.374 2.484a743 743 0 0 0-1 7.422q-.625 4.75-1.093 10.844a168 168 0 0 0-.469 12.843q0 6.657.469 12.75.467 6.081 1.093 10.844.624 4.751 1 7.516c.313 1.844-.48 2.664-2.375 2.469M143.751 210.357c-1.969.32-2.793-.469-2.469-2.375q.282-2.765.75-7.516.482-4.763.953-10.844c.32-4.062.547-8.312.672-12.75.125-4.125.07-8.007-.156-11.656q-.328-5.466-.797-9.75c-1.586-.125-3.39.008-5.422.39q-3.047.565-6.75 2.079-1.254.485-2.062-.031-.797-.528-.703-1.969.188-3.42.234-5.516a49 49 0 0 0-.14-4.656q-.095-1.342.562-2c.445-.445 1.082-.61 1.906-.484q2.858.391 5.094.437 2.233.047 5.469.047h18.75q3.325 0 5.515-.047 2.186-.046 5.047-.437c.82-.125 1.469.023 1.938.437.476.406.656 1.059.53 1.953-.062 1.649-.108 3.297-.14 4.953a66 66 0 0 0 .14 5.407q.093 1.347-.671 1.875-.752.516-2.094.031-7.22-2.858-11.89-2.469a257 257 0 0 0-.86 9.75 171 171 0 0 0-.375 11.656q0 6.657.422 12.75.436 6.081 1 10.844.576 4.751.953 7.516c.32 1.906-.468 2.695-2.375 2.375a76 76 0 0 0-2.953-.328q-1.517-.14-3.797-.14-2.19 0-3.625.14-1.425.14-2.656.328M191.037 210.357c-1.969.32-2.793-.469-2.469-2.375q.282-2.765.75-7.516c.32-3.176.641-6.789.953-10.844.32-4.062.547-8.312.672-12.75.125-4.125.07-8.007-.156-11.656q-.328-5.466-.797-9.75c-1.586-.125-3.39.008-5.422.39q-3.045.565-6.75 2.079-1.254.485-2.062-.031-.797-.528-.703-1.969.188-3.42.234-5.516a49 49 0 0 0-.14-4.656q-.095-1.342.562-2c.445-.445 1.082-.61 1.906-.484q2.857.391 5.094.437 2.233.047 5.469.047h18.75q3.325 0 5.515-.047 2.187-.046 5.047-.437c.82-.125 1.469.023 1.938.437.476.406.656 1.059.531 1.953-.063 1.649-.11 3.297-.14 4.953a66 66 0 0 0 .14 5.407q.092 1.347-.672 1.875-.751.516-2.094.031-7.22-2.858-11.89-2.469a257 257 0 0 0-.86 9.75 171 171 0 0 0-.375 11.656q0 6.657.422 12.75.436 6.081 1 10.844.576 4.751.953 7.516c.32 1.906-.468 2.695-2.375 2.375a76 76 0 0 0-2.953-.328q-1.517-.14-3.797-.14-2.19 0-3.625.14-1.425.14-2.656.328M225.198 210.45c-1.906.196-2.699-.624-2.375-2.468q1.03-5.514 1.985-13.219c.632-5.144.953-11.11.953-17.89 0-4.438-.18-8.688-.532-12.75-.343-4.063-.757-7.676-1.234-10.844q-.704-4.763-1.172-7.422-.485-2.952 2.375-2.469a54 54 0 0 0 2.985.328q1.668.14 4.046.14 2.578 0 4.282-.14a29 29 0 0 0 3.234-.437q2.764-.282 2.281 2.484-1.237 6.471-2.047 13.844-.796 7.376-.796 17.265 0 6.845.515 11.47.53 4.61.906 7.077 1.419.095 3.985.141 2.578.047 5.86-.844 3.28-.903 6.718-3.484 1.23-.855 2.187-.422.95.423.844 1.766a217 217 0 0 0-.234 7.937q-.046 4.048.234 7.563c.07 1.78-.75 2.57-2.469 2.375a82 82 0 0 0-7.656-.61q-4.05-.14-8.797-.14-4.19 0-8.468.187-4.283.188-7.61.563M265.635 210.45c-1.906.196-2.668-.624-2.28-2.468q.468-2.765 1.171-7.516.717-4.763 1.234-10.844c.352-4.062.532-8.312.532-12.75 0-4.437-.18-8.687-.532-12.75q-.517-6.091-1.234-10.89-.704-4.81-1.172-7.469-.58-2.766 2.281-2.484 3.704.39 8.172.625 4.466.234 8.985.234 4.53 0 8.625-.234 4.09-.234 7.03-.719c1.72-.313 2.477.547 2.282 2.578a105 105 0 0 0-.187 6.047q0 2.8.187 6.89-.001 3.237-2.844 1.422-3.234-2.373-6.468-3.187-3.235-.811-5.907-.813c-1.773 0-3.23.04-4.375.11l-.234 2.375a423 423 0 0 0-.531 5.844c-.188 2.312-.375 4.617-.563 6.906q2.749.001 5.657-.766c1.937-.508 3.601-1.082 5-1.719q1.232-.469 1.796-.187c.383.187.516.762.391 1.719q-.094 1.33-.14 2.718a85 85 0 0 0-.047 2.891v2.719q0 1.378.093 2.703.28 2.673-2.281 1.531-2.095-.856-5.047-1.531c-1.969-.445-3.808-.672-5.515-.672q.187 2.578.421 5.484c.157 1.93.313 3.75.47 5.47a502 502 0 0 1 .53 5.796q1.717.094 4.657-.047 2.952-.14 6.515-1.14 3.576-.996 6.907-3.563 2.28-1.53 2.187 1.14-.188 3.425-.14 7.282.046 3.844.421 6.89c.196 1.782-.593 2.57-2.375 2.376a100 100 0 0 0-8.468-.61q-4.472-.14-8.75-.14-9.422 0-16.454.75m0 0"/><path fill="#097d4c" d="M153.217 253.956c-.98.101-1.386-.317-1.218-1.266q.527-2.826 1.015-6.765.499-3.95.5-9.172 0-3.42-.281-6.531a95 95 0 0 0-.625-5.563 142 142 0 0 0-.61-3.812q-.251-1.512 1.22-1.266.685.094 1.53.172c.57.054 1.266.078 2.079.078.875 0 1.601-.024 2.187-.078q.89-.077 1.672-.219c.938-.094 1.32.328 1.156 1.266a95 95 0 0 0-1.047 7.093q-.408 3.786-.406 8.86-.002 3.503.266 5.875.264 2.36.469 3.625c.476.031 1.156.058 2.03.078q1.326.019 3-.438c1.126-.312 2.274-.906 3.454-1.78q.622-.435 1.11-.22.498.222.452.907a99 99 0 0 0-.14 4.078 40 40 0 0 0 .14 3.86c.032.917-.398 1.32-1.28 1.218a46 46 0 0 0-3.923-.313q-2.062-.077-4.5-.078c-1.437 0-2.89.04-4.36.11a59 59 0 0 0-3.89.28M173.946 253.956c-.98.101-1.371-.317-1.172-1.266q.246-1.405.61-3.843.356-2.436.624-5.563.282-3.122.282-6.531 0-3.42-.282-6.531a99 99 0 0 0-.625-5.594 126 126 0 0 0-.609-3.828q-.3-1.407 1.172-1.266 1.904.188 4.187.313 2.297.126 4.61.125 2.324.001 4.422-.125a39 39 0 0 0 3.609-.36q1.313-.246 1.172 1.313a46 46 0 0 0-.11 3.093q0 1.44.11 3.547-.002 1.658-1.469.719-1.658-1.217-3.312-1.625-1.66-.422-3.032-.422-1.36 0-2.234.047-.001 0-.125 1.219-.13 1.218-.281 3l-.281 3.547q1.404 0 2.89-.391 1.5-.387 2.578-.89c.414-.157.723-.18.922-.079q.293.143.188.86-.049.691-.078 1.406-.017.704-.016 1.484v1.39q0 .706.047 1.376.151 1.378-1.172.781c-.711-.289-1.57-.547-2.578-.765q-1.517-.342-2.828-.344.091 1.313.218 2.797.123 1.489.235 2.812.122 1.314.203 2.14.077.83.078.829.874.047 2.375-.016 1.514-.077 3.344-.593c1.219-.344 2.398-.954 3.547-1.829q1.169-.78 1.109.579a60 60 0 0 0-.078 3.734c.02 1.312.098 2.492.234 3.531.094.918-.312 1.32-1.218 1.219a56 56 0 0 0-4.344-.313 136 136 0 0 0-4.485-.078c-3.218 0-6.03.133-8.437.39M210.87 254.159h-2.25q-1.126 0-1.36-1.172-.345-2.203-.844-4.656-.485-2.466-.953-4.703-.457-2.249-.797-3.766a57 57 0 0 0-1-4.265 55 55 0 0 0-1.047-3.329v.141q-.094 1.079-.172 2.156-.063 1.065-.062 2.188-.002 3.409.265 6.531.263 3.127.625 5.563.375 2.437.61 3.796.091.645-.203 1.032-.283.386-1.016.28a29 29 0 0 0-1.61-.202q-.675-.077-2.187-.078c-.812 0-1.508.027-2.078.078q-.845.064-1.578.156c-.98.164-1.371-.27-1.172-1.312q.234-1.359.578-3.766.34-2.419.61-5.547.264-3.122.265-6.531-.001-3.42-.265-6.531-.27-3.125-.61-5.563-.345-2.437-.578-3.812-.252-1.512 1.172-1.266.733.094 1.578.172c.57.054 1.266.078 2.078.078.938 0 1.867-.031 2.797-.094.926-.07 1.797-.156 2.61-.25.78-.101 1.218.25 1.312 1.063q.388 2.987 1.578 8.125 1.2 5.143 2.578 11.828 1.359-6.294 2.594-11.531 1.248-5.248 1.594-8.422.152-1.156 1.312-1.016 1.078.096 2.344.203 1.265.094 2.828.094 1.079.001 1.64-.016c.376-.02.712-.054 1.016-.11q.467-.076 1.157-.171.669-.092 1.015.25.342.33.203 1.11-.253 1.328-.593 3.765-.346 2.438-.61 5.531a76 76 0 0 0-.265 6.563c0 2.273.085 4.449.265 6.531q.264 3.128.61 5.547.34 2.407.593 3.766.14.785-.203 1.125-.346.339-1.015.234c-.461-.063-.844-.117-1.157-.156a8 8 0 0 0-1.015-.094 34 34 0 0 0-1.641-.031c-.812 0-1.508.027-2.078.078q-.845.064-1.531.156c-1 .164-1.407-.254-1.22-1.266q.295-1.405.642-3.812.34-2.419.609-5.547.265-3.122.266-6.531a47 47 0 0 0-.188-4.203l-.062-.485q-.188.926-.75 2.953a71 71 0 0 0-1.141 4.844c-.399 1.824-.828 3.805-1.297 5.938q-.705 3.19-1.437 7.234-.253 1.125-1.36 1.125M238.661 254.55q-5.612 0-8.734-4.36-3.11-4.372-3.11-13.484 0-8.343 3.11-13.047 3.122-4.718 8.734-4.719 5.608 0 8.703 4.719 3.094 4.704 3.094 13.047 0 9.112-3.094 13.484-3.095 4.36-8.703 4.36m-.047-6.828c.813 0 1.508-.477 2.094-1.438q.873-1.436 1.36-3.89.498-2.466.5-5.5 0-5.076-1.079-8.094c-.718-2.02-1.68-3.032-2.875-3.032q-1.814.001-2.89 3.032-1.065 3.018-1.063 8.093-.001 3.035.485 5.5.481 2.456 1.39 3.891.905 1.439 2.078 1.438M260.504 253.956q-.786-.14-1.64-.203a25 25 0 0 0-2.157-.078c-.812 0-1.508.027-2.078.078q-.845.064-1.578.156-.645.094-.985-.234-.327-.34-.187-1.032.246-1.405.61-3.812.356-2.419.624-5.547.282-3.122.282-6.531 0-3.42-.282-6.531a95 95 0 0 0-.625-5.563 142 142 0 0 0-.61-3.812q-.14-.67.188-1.016.34-.342.985-.25.825.094 1.75.172.92.08 2.203.078 1.405 0 2.453-.094c.695-.07 1.375-.14 2.031-.203q1.266-.2 1.266 1.219-.047 1.8.281 3.969.34 2.174.985 4.296.637 2.128 1.421 3.829a93 93 0 0 0 3.11 5.953l.047-2.047q-.001-3.42-.266-6.531a85 85 0 0 0-.64-5.563 204 204 0 0 0-.594-3.812q-.252-1.512 1.218-1.266a30 30 0 0 0 1.532.172q.857.08 2.078.078c.875 0 1.601-.024 2.187-.078q.873-.077 1.703-.219 1.418-.141 1.172 1.266-.346 2.003-.687 4.093a74 74 0 0 0-.578 4.907q-.237 2.8-.297 6.953-.002 3.409.265 6.531.28 3.127.641 5.563.375 2.437.61 3.796.139.692-.172 1.032-.316.328-1 .28a16 16 0 0 0-1.657-.202 26 26 0 0 0-2.187-.078q-1.377 0-2.25.093-.879.094-1.703.188c-.75.164-1.211-.188-1.375-1.063q-.236-1.372-.782-3.765a70 70 0 0 0-1.39-5.188 35.5 35.5 0 0 0-2.063-5.297 227 227 0 0 0-1.156-2.328 80 80 0 0 0-.937-1.86q-.048.534-.047 1.126v1.172q-.002 3.409.265 6.531.263 3.127.625 5.563.375 2.437.61 3.796.152.692-.188 1.032-.345.328-1.031.28m0 0"/></svg>